<?xml version="1.0"?><svg version="1.2" baseProfile="tiny-ps" viewBox="0 0 300 300" xmlns="http://www.w3.org/2000/svg" xmlns:xlink="http://www.w3.org/1999/xlink"><title>DJ DaVee</title><g><g fill="#fefefe" transform="matrix(.1 0 0 -.1 0 300)"><path d="M0 2325v-675h1350v1350H0v-675z"/></g><g fill="#dcdcdc" transform="matrix(.1 0 0 -.1 0 300)"><path d="M0 2325v-675h1350v1350H0v-675zm665 332 39-12 19-33 20-33-2-131-2-130-18-37c-34-65-97-164-104-162-4 0-59 1-122 1H380v537l7 6c3 4 58 7 122 6l116-1 40-11zm303-346-4-226-13-26-13-26-31-18-31-19-76-4-75-4-39 14c-21 7-43 20-49 28l-9 16 36 59 36 60v-74l19-11 20-10h91l20 20 20 20v353l25 42 24 42 26-5 27-5-4-226zm-486 266-12-15 2-178 3-179 73-3 74-3 14 12 14 11v336l-16 13-16 13-62 4-62 4-12-15z"/></g><g fill="#acacac" transform="matrix(.1 0 0 -.1 0 300)"><path d="M0 2325v-675h1350v1350H0v-675zm679 332c13-6 34-25 45-40l21-28 3-130 4-130-68-119-68-120-6 10-6 9-114 3-115 3-3 265c-1 146 0 270 3 277l4 13h276l24-13zm255-91-5-13 20-6 21-5v-443l-14-34-15-35-33-20-33-20H699l-33 14c-19 8-37 19-40 25l-7 11 40 67 41 68v-71l12-12 12-12h112l12 12 12 12v349l35 64c33 58 52 82 39 49zm-454-176v-190h140l15 24 16 25-3 156-3 156-15 9-15 10H480v-190z"/></g><g fill="#6f6f6f" transform="matrix(.1 0 0 -.1 0 300)"><path d="M0 2325v-675h1350v1350H0v-675zm690 330 30-15 15-30 15-29v-263l-76-134c-42-74-78-134-80-134s1 11 6 25l10 26-13 4c-6 3-59 6-117 7l-105 3-3 278-2 277h291l29-15zm260-54c-5-11-10-27-10-35v-16h30v-462l-15-32-15-32-29-17-29-17H671l-27 23-27 24 38 69 39 69 8-40c10-48 20-55 80-55h47l15 16 16 15v352l46 79c25 43 48 78 50 78 3 0 0-9-6-19zm-466-34c-2-7-3-91-2-187l3-175 57-3 57-3 21 11 20 11v338l-19 11-20 10H489l-5-13z"/></g><g fill="#292929" transform="matrix(.1 0 0 -.1 0 300)"><path d="M0 2325v-675h1350v1350H0v-675zm679 337c19-9 44-30 55-45l21-28 3-129 4-129-73-128c-104-184-142-238-104-146 8 19 15 37 15 39s-51 5-112 6l-113 3-3 275c-1 151 0 280 3 287l4 13h266l34-18zm280-49-20-47 16-8 15-9v-474l-13-24c-6-13-25-34-40-45l-28-21-86-4-86-3-37 11c-20 6-44 19-53 29l-16 18 40 72c22 40 44 72 49 72h9l3-42 3-43 63-3 62-3 10 26 10 26v328l22 38c47 84 90 153 93 153s-5-21-16-47zm-469-223v-180h126l12 12 12 12v152c0 84-3 159-6 168l-6 16H490v-180z"/></g><g fill="#010101" transform="matrix(.1 0 0 -.1 0 300)"><path d="M0 2330v-670h1350v1340H0v-670zm697 329 33-21 15-28 15-29v-263l-36-64-36-64h22v-76l12-12 12-12h92l12 12 12 12v347l38 67c67 117 84 142 92 142h9l-21-50-20-49 17-17 17-17-4-236-3-236-12-22c-7-11-29-31-48-43l-35-22-109 4-109 3-27 25-26 24 5 13c10 24-2 13-25-24l-23-38-3 17-4 16 21 41 20 41H372l-6 16c-3 9-6 136-6 283v268l7 6c3 4 71 7 151 7h145l34-21zm-207-269v-181l68 3 67 3v350l-67 3-68 3v-181z"/></g></g></svg>