<?xml version="1.0"?><svg version="1.2" baseProfile="tiny-ps" viewBox="0 0 183 183" xmlns="http://www.w3.org/2000/svg" xmlns:xlink="http://www.w3.org/1999/xlink"><title>djdavee</title><g><g fill="#fff" transform="matrix(.1 0 0 -.1 0 183)"><path d="M0 915V0h1830v1830H0V915z"/></g><g fill="#dfdfdf" transform="matrix(.1 0 0 -.1 0 183)"><path d="M0 915V0h1830v1830H0V915zm920 449 41-16 27-47 27-46 3-166 4-166-48-84c-26-46-67-117-90-157l-42-73-7 10-6 11H510v737l7 6c3 4 86 7 184 7h179l40-16zm346-131-1-18 23-3 22-3V605l-10-34c-12-43-45-79-89-97l-33-14H944l-44 23-45 22-2 15-3 15 50 85 50 85v-94l16-15 15-16h158l15 16 16 15v479l46 80c26 44 48 80 49 80 2 0 2-8 1-17zm-614-230 3-258h197l14 19 14 20v432l-16 22-15 22H650l2-257z"/></g><g fill="#aeaeae" transform="matrix(.1 0 0 -.1 0 183)"><path d="M0 915V0h1830v1830H0V915zm925 453c41-22 64-50 81-95l13-38 1-162V911l-93-163c-52-90-99-172-106-183l-13-20 7 20c4 11 10 28 12 38l5 17H510v757l8 7 7 8 185-4 185-3 30-17zm360-94c-20-48-19-52 8-56l22-3 3-275c2-151 0-298-3-327l-6-52-22-32-22-32-40-21-40-21H935l-42 24c-23 13-44 29-47 36l-4 11 51 90 52 89 6-49 5-48 19-14 19-14h136l20 20 20 20v477l61 106c34 59 63 107 65 107 3 0-3-16-11-36zm-628-21-7-6V752l50-7 50-7 50 7 51 7 15 23 15 23-3 217-3 217-19 14-20 14h-86c-48 0-90-3-93-7z"/></g><g fill="#6a6a6a" transform="matrix(.1 0 0 -.1 0 183)"><path d="M0 915V0h1830v1830H0V915zm942 447 37-23 20-43 21-42V903L915 721C810 538 780 490 780 502c0 4 9 24 19 45 11 21 21 45 23 53l3 15-160 5-160 5-3 370c-1 203 0 376 3 383l5 14 197-4 198-3 37-23zm355-69c-8-15-17-38-21-50l-7-21 23-4 23-3 3-300 3-300-11-36c-5-20-20-49-32-64l-21-28-41-18-41-19H944l-44 23c-24 12-48 29-53 38l-10 16 54 92 53 91 11-55c6-30 15-58 19-62l8-8h157l13 13 13 13 5 252 5 252 64 108c35 59 66 106 68 103 2-2-2-17-10-33zm-637-288V750h179l15 16 16 15v448l-22 15-22 16H660v-255z"/></g><g fill="#272727" transform="matrix(.1 0 0 -.1 0 183)"><path d="M0 915V0h1830v1830H0V915zm925 456c49-22 73-48 91-98l13-38 1-162V912L918 716c-62-107-123-208-135-223l-23-28 26 60c14 33 28 66 31 73l5 12H677c-80 0-152 3-161 6l-16 6v755l7 6c3 4 90 7 192 7h186l40-19zm376-74-29-65 24-6 24-6V583l-23-43-23-44-44-23-43-23H939l-32 14c-18 7-42 24-54 37l-22 24 56 98c32 53 61 97 65 97h8v-91l10-20 11-19h155l12 12 12 12v477l81 140c45 77 83 138 85 136 3-2-9-34-25-70zm-639-294 3-248 82-3 82-3 21 21 20 20v409l-10 25-10 26H660l2-247z"/></g><g fill="#010101" transform="matrix(.1 0 0 -.1 0 183)"><path d="M0 920V10h1830v1820H0V920zm940 447 44-23 23-44 23-43V904L919 710c-61-107-121-208-132-224l-21-29-3 9c-2 6 10 39 26 75l29 64-156 5-157 5-3 388-2 387h397l43-23zm376-38c-13-30-26-64-30-75l-7-22 21-5 21-5-3-334-3-333-23-33-24-32-38-20-39-20H925l-39 23c-22 12-43 29-48 37l-10 15 59 102c32 57 61 103 66 103h7V630l21-21 21-21 69 4c37 2 72 7 76 12l8 8 5 251 5 252 24 40c95 158 144 235 147 232 2-2-6-28-20-58zm-646-324V760h166l12 12 12 12v445l-19 11-20 10H670v-245z"/></g></g></svg>