<?xml version="1.0" encoding="UTF-8"?>
<!-- Generator: visioncortex VTracer 0.6.3 -->
<svg version="1.1" xmlns="http://www.w3.org/2000/svg" width="1280" height="1280">
<path d="M0 0 C422.4 0 844.8 0 1280 0 C1280 422.4 1280 844.8 1280 1280 C857.6 1280 435.2 1280 0 1280 C0 857.6 0 435.2 0 0 Z " fill="#000100" transform="translate(0,0)"/>
<path d="M0 0 C29.28 0.1 58.57 0.21 87.85 0.33 C91.31 0.34 94.78 0.36 98.24 0.37 C98.93 0.38 99.62 0.38 100.33 0.38 C111.47 0.42 122.61 0.47 133.74 0.5 C145.19 0.55 156.63 0.59 168.08 0.64 C174.5 0.66 180.92 0.69 187.34 0.71 C193.4 0.73 199.45 0.75 205.51 0.78 C207.72 0.79 209.93 0.8 212.14 0.8 C224.13 0.84 236.04 1.06 248 2 C248 2.66 248 3.32 248 4 C248.8 3.75 249.61 3.5 250.44 3.25 C254.72 2.95 256.7 4.05 260.47 5.91 C263.18 7.08 265.73 7.66 268.62 8.25 C275.25 9.78 280.66 12.79 286.53 16.09 C289.25 17.59 291.87 18.85 294.75 20 C300.36 22.39 305.41 26.01 310 30 C310.33 30.99 310.66 31.98 311 33 C312.31 33.7 313.65 34.37 315 35 C317.36 37.06 319.44 39.39 321.56 41.69 C322.14 42.29 322.72 42.89 323.31 43.51 C327.01 47.48 329.03 50.96 331 56 C333.52 58.77 333.52 58.77 336 61 C337 63 337 63 337.31 65.81 C338.12 69.54 339.6 71.09 342 74 C343.82 78.61 345.12 83.03 344.81 88 C345.06 91.88 346.54 93.05 349 96 C350.17 98.63 351.07 101.27 352 104 C352.33 104 352.66 104 353 104 C353.02 132.54 353.04 161.07 353.05 189.61 C353.06 202.86 353.06 216.11 353.08 229.36 C353.09 240.9 353.09 252.44 353.09 263.99 C353.1 270.1 353.1 276.22 353.11 282.34 C353.11 288.09 353.11 293.84 353.11 299.58 C353.11 301.7 353.12 303.82 353.12 305.94 C353.12 308.81 353.12 311.69 353.12 314.57 C353.12 315.84 353.12 315.84 353.13 317.14 C353.11 322.89 353.11 322.89 352 324 C352.04 325.64 352.12 327.28 352.21 328.93 C352.26 335.25 350.49 339.64 347.62 345.19 C347.18 346.09 346.73 347 346.26 347.93 C342.69 355 338.63 361.71 334.32 368.35 C332.09 371.79 330.16 375.31 328.25 378.94 C325.14 384.84 321.62 390.28 317.78 395.73 C316.41 397.69 315.05 399.66 313.69 401.62 C313.02 402.56 313.02 402.56 312.34 403.51 C309.46 407.7 308.56 410.86 308 416 C306.81 417.48 305.61 418.96 304.32 420.35 C302.8 422.24 301.99 424.07 301.06 426.31 C299.71 429.56 298.19 432.36 296.19 435.25 C292.94 439.93 290.33 444.88 287.67 449.91 C285.61 453.72 283.34 457.36 281 461 C280.48 461.87 279.97 462.73 279.44 463.62 C278.39 465.36 277.27 467.05 276.12 468.72 C274 472 272.31 475.29 270.62 478.81 C268.18 483.85 265.48 488.52 262.27 493.11 C260.83 495.16 260.83 495.16 259.38 498.25 C258 501 258 501 256.06 503.31 C254.3 505.6 253.4 507.21 252.31 509.81 C248.12 519.71 242.44 529.16 236.33 537.99 C234.44 540.85 232.85 543.86 231.22 546.88 C230.06 548.9 228.78 550.71 227.38 552.56 C225.53 555.04 224.39 557.33 223.38 560.25 C222.06 563.85 221.5 564.5 219 567 C217.93 569.06 217.93 569.06 217.06 571.31 C215.41 575.21 213.4 578.51 211 582 C209.99 583.99 208.99 586 208 588 C206.88 590.09 205.76 592.17 204.62 594.25 C201.31 600.39 201.31 600.39 198.06 606.56 C197.66 607.33 197.26 608.09 196.85 608.88 C195.75 611.24 195.75 611.24 196 615 C194.68 616.35 193.34 617.68 192 619 C190.33 621.57 188.89 624.25 187.44 626.94 C185.96 629.63 184.48 632.31 183 635 C182.45 635.99 181.91 636.98 181.35 638 C180.9 638.66 180.46 639.32 180 640 C179.34 640 178.68 640 178 640 C178 639.34 178 638.68 178 638 C176.68 638 175.36 638 174 638 C172.42 639.74 172.42 639.74 171.25 642 C170.82 642.74 170.39 643.49 169.95 644.25 C169.64 644.83 169.32 645.4 169 646 C168.09 643.55 167.91 642.29 168.7 639.77 C169.34 638.4 169.34 638.4 170 637 C170.28 636.39 170.56 635.77 170.85 635.14 C171.85 632.98 172.86 630.83 173.88 628.69 C174.21 627.97 174.55 627.25 174.9 626.5 C176.92 622.23 178.99 618 181.17 613.8 C182.47 610.98 183.16 607.98 184 605 C184.99 603.33 185.99 601.66 187 600 C187.34 598.33 187.67 596.67 188 595 C189.67 591.13 190.45 589.37 194 587 C194.84 584.96 194.84 584.96 195.38 582.56 C196.72 577.64 198.63 573.21 200.81 568.61 C201.86 566.3 202.74 564.02 203.56 561.62 C205 558 205 558 207.19 555.44 C209.63 552.16 209.45 549.99 209 546 C207.18 543.75 207.18 543.75 204.54 543.77 C203.5 543.77 202.46 543.78 201.39 543.79 C199.62 543.79 199.62 543.79 197.81 543.8 C196.52 543.81 195.23 543.83 193.9 543.84 C192.55 543.85 191.2 543.85 189.85 543.86 C186.27 543.87 182.69 543.89 179.12 543.92 C172.79 543.97 166.47 544 160.15 544.03 C159.47 544.03 158.78 544.03 158.08 544.04 C148.55 544.07 139.03 543.93 129.5 543.57 C127.92 543.51 127.92 543.51 126.3 543.45 C119.13 543.13 119.13 543.13 118 542 C115.02 541.91 112.07 541.89 109.09 541.9 C108.16 541.9 107.22 541.91 106.26 541.91 C104.22 541.91 102.18 541.92 100.14 541.92 C96.92 541.94 93.69 541.94 90.46 541.95 C82.44 541.96 74.41 541.99 66.39 542.01 C59.62 542.03 52.85 542.05 46.09 542.06 C42.91 542.06 39.73 542.07 36.56 542.09 C34.6 542.09 32.64 542.09 30.68 542.1 C29.36 542.11 29.36 542.11 28.02 542.11 C23.24 542.11 18.73 541.72 14 541 C11.28 541.36 8.64 541.84 5.98 542.5 C-0.19 543.7 -3.54 542.11 -8.74 538.74 C-9.86 537.88 -9.86 537.88 -11 537 C-12.04 536.22 -12.04 536.22 -13.11 535.43 C-15.83 531.93 -15.55 528.61 -15.5 524.35 C-15.51 523.47 -15.51 522.58 -15.52 521.67 C-15.54 518.68 -15.52 515.69 -15.51 512.7 C-15.51 510.54 -15.52 508.38 -15.53 506.23 C-15.54 500.28 -15.54 494.34 -15.52 488.39 C-15.51 481.99 -15.53 475.58 -15.54 469.18 C-15.56 457.35 -15.55 445.53 -15.54 433.7 C-15.53 422.77 -15.53 411.85 -15.54 400.92 C-15.54 400.2 -15.54 399.48 -15.54 398.73 C-15.54 395.79 -15.54 392.85 -15.54 389.91 C-15.55 362.33 -15.54 334.74 -15.52 307.16 C-15.5 282.64 -15.5 258.12 -15.52 233.61 C-15.54 206.08 -15.55 178.54 -15.54 151.01 C-15.54 148.08 -15.54 145.14 -15.54 142.21 C-15.53 141.49 -15.53 140.76 -15.53 140.02 C-15.53 129.1 -15.54 118.18 -15.55 107.26 C-15.56 94.85 -15.55 82.44 -15.53 70.02 C-15.52 63.68 -15.52 57.35 -15.53 51.01 C-15.54 45.21 -15.54 39.42 -15.51 33.62 C-15.51 31.52 -15.51 29.42 -15.52 27.31 C-15.53 24.47 -15.52 21.62 -15.5 18.77 C-15.51 17.95 -15.52 17.12 -15.53 16.27 C-15.46 11.2 -14.68 8.76 -11 5 C-10.34 4.01 -9.68 3.02 -9 2 C-6.84 1.71 -6.84 1.71 -4.38 1.81 C-3.56 1.84 -2.74 1.87 -1.9 1.89 C-0.96 1.95 -0.96 1.95 0 2 C0 1.34 0 0.68 0 0 Z " fill="#F9FBFB" transform="translate(366,307)"/>
<path d="M0 0 C0.99 0.33 1.98 0.66 3 1 C2.61 3.78 2.29 5.62 0.56 7.88 C-1.53 10.72 -2.07 13.61 -3 17 C-4 19 -5 21 -6 23 C-7.29 26.31 -8.51 29.64 -9.72 32.98 C-11 36 -11 36 -12.49 37.91 C-14.66 40.91 -15.59 44.26 -16.69 47.75 C-16.91 48.45 -17.14 49.14 -17.37 49.86 C-17.92 51.57 -18.46 53.29 -19 55 C-19.66 55 -20.32 55 -21 55 C-21.18 55.68 -21.36 56.35 -21.55 57.05 C-21.8 57.94 -22.05 58.83 -22.31 59.75 C-22.56 60.63 -22.8 61.51 -23.05 62.42 C-24.02 65.06 -25.21 66.85 -27 69 C-26.67 69.66 -26.34 70.32 -26 71 C-26.69 73.17 -27.47 75.32 -28.31 77.44 C-28.99 79.17 -28.99 79.17 -29.68 80.93 C-31 84 -31 84 -33 87 C-33.66 87 -34.32 87 -35 87 C-35 89.97 -35 92.94 -35 96 C-34.31 96.07 -33.63 96.14 -32.92 96.21 C-29.78 96.54 -26.64 96.9 -23.5 97.25 C-22.42 97.36 -21.34 97.47 -20.23 97.58 C-13.8 98.33 -6.84 99.16 -2 104 C-1.96 105.67 -1.96 107.33 -2 109 C-1.34 109 -0.68 109 0 109 C-0.16 109.52 -0.32 110.04 -0.49 110.58 C-1.14 113.68 -1.12 116.57 -1.12 119.74 C-1.12 120.76 -1.12 120.76 -1.13 121.8 C-1.13 124.09 -1.12 126.38 -1.12 128.67 C-1.12 130.32 -1.12 131.97 -1.12 133.63 C-1.13 138.18 -1.12 142.73 -1.12 147.28 C-1.11 152.19 -1.11 157.09 -1.11 162 C-1.11 170.5 -1.11 179 -1.11 187.5 C-1.1 199.79 -1.09 212.08 -1.09 224.38 C-1.09 244.32 -1.08 264.26 -1.08 284.2 C-1.07 303.57 -1.06 322.95 -1.05 342.32 C-1.05 343.52 -1.05 344.71 -1.05 345.94 C-1.05 351.93 -1.05 357.92 -1.05 363.9 C-1.04 413.6 -1.02 463.3 -1 513 C-0.67 513 -0.34 513 0 513 C0 516.3 0 519.6 0 523 C-0.66 523 -1.32 523 -2 523 C-1.98 523.73 -1.95 524.45 -1.93 525.2 C-1.74 535.66 -2.82 545.02 -7.01 554.65 C-7.93 556.83 -8.64 558.98 -9.31 561.25 C-12.18 570.06 -16.85 578.65 -21.96 586.35 C-23.07 588.04 -23.07 588.04 -24.01 590.15 C-25 592 -25 592 -27 593 C-27.4 593.87 -27.4 593.87 -27.81 594.75 C-30.97 600.73 -37.42 605.92 -43.56 608.5 C-47.32 610.14 -49.17 612.1 -52 615 C-54.81 616.31 -54.81 616.31 -57 617 C-57 617.66 -57 618.32 -57 619 C-57.99 619 -58.98 619 -60 619 C-60 619.66 -60 620.32 -60 621 C-60.71 621.24 -61.43 621.48 -62.16 621.73 C-68.67 623.99 -68.67 623.99 -74.75 627.19 C-78.28 629.16 -81.04 629.47 -85 630 C-86.69 631.44 -86.69 631.44 -88 633 C-90.52 633.86 -92.31 634 -95 634 C-96.59 634.32 -98.17 634.66 -99.75 635 C-106.85 636.35 -113.8 636.17 -121 636 C-121 636.66 -121 637.32 -121 638 C-122.65 638.03 -124.29 638.05 -125.94 638.06 C-126.85 638.07 -127.77 638.09 -128.71 638.1 C-131 638 -131 638 -132 637 C-135.16 636.91 -138.3 636.89 -141.46 636.9 C-142.45 636.9 -143.44 636.91 -144.47 636.91 C-146.63 636.91 -148.8 636.92 -150.97 636.92 C-154.4 636.94 -157.83 636.94 -161.26 636.95 C-169.78 636.96 -178.31 636.99 -186.83 637.01 C-194.02 637.03 -201.21 637.05 -208.4 637.06 C-211.78 637.06 -215.15 637.07 -218.53 637.09 C-220.61 637.09 -222.69 637.09 -224.77 637.1 C-226.17 637.11 -226.17 637.11 -227.6 637.11 C-232.51 637.11 -237.14 636.79 -242 636 C-244.29 635.96 -246.58 635.96 -248.88 636 C-260.62 636.05 -270.05 633.66 -281.19 629.93 C-283.22 629.26 -285.26 628.62 -287.31 628 C-290 627 -290 627 -291 625 C-292.24 624.77 -293.48 624.55 -294.75 624.31 C-308.07 621.6 -318.89 612.21 -328.31 602.94 C-328.82 602.44 -329.32 601.95 -329.84 601.44 C-333.04 598.21 -335.53 594.84 -338 591 C-338.66 590.34 -339.32 589.68 -340 589 C-339.79 584.47 -338.28 581.41 -335.97 577.66 C-334.88 575.91 -334.88 575.91 -334.06 573.44 C-332.88 570.73 -331.2 568.91 -329.28 566.7 C-327.43 564.24 -326.4 561.58 -325.22 558.75 C-321.23 549.74 -316.42 541.28 -310.59 533.34 C-308.4 530.12 -306.79 526.69 -305.12 523.17 C-304 521 -304 521 -301.94 518.44 C-300.17 516.22 -299.32 514.59 -298.25 512.02 C-295.88 506.57 -293.02 501.46 -290.06 496.31 C-289.55 495.4 -289.04 494.49 -288.51 493.55 C-286.3 489.68 -284.14 485.99 -281.21 482.61 C-279.23 480.27 -278.32 478.88 -277.5 476 C-276.53 472.56 -274.74 470.52 -272.42 467.84 C-269.55 464.11 -267.5 459.84 -265.31 455.69 C-264.36 453.88 -263.39 452.07 -262.43 450.26 C-262.01 449.47 -261.59 448.67 -261.16 447.85 C-260 446 -260 446 -258 445 C-255.36 448.8 -254.63 451.33 -254.65 455.93 C-254.64 457.1 -254.64 458.28 -254.64 459.48 C-254.65 460.74 -254.65 462 -254.66 463.3 C-254.65 465.29 -254.65 467.28 -254.63 469.27 C-254.61 474.17 -254.62 479.06 -254.64 483.96 C-254.65 486.71 -254.64 489.46 -254.63 492.21 C-254.61 494.79 -254.61 497.38 -254.64 499.96 C-254.59 506.73 -253.99 511.45 -250.17 517.13 C-248.39 519.97 -248.05 522.57 -247.69 525.88 C-246.87 529.61 -245.2 531.9 -243 535 C-242.5 536.49 -242.5 536.49 -242 538 C-241.28 538.1 -240.56 538.21 -239.81 538.31 C-236.73 539.07 -234.68 540.32 -232 542 C-227.25 544.45 -222.58 544.44 -217.35 544.62 C-215.91 544.67 -215.91 544.67 -214.44 544.73 C-203.55 545.12 -192.66 545.15 -181.77 545.13 C-178.32 545.12 -174.86 545.13 -171.41 545.14 C-169.2 545.14 -166.98 545.13 -164.77 545.13 C-163.75 545.13 -162.72 545.14 -161.66 545.14 C-160.24 545.13 -160.24 545.13 -158.79 545.13 C-157.54 545.13 -157.54 545.13 -156.27 545.13 C-154.05 545 -152.14 544.57 -150 544 C-148.35 544.01 -146.71 544.05 -145.06 544.12 C-140.67 544.18 -138.71 543.38 -135 541 C-133.57 540.85 -132.13 540.75 -130.69 540.69 C-124.07 540.15 -119.99 536.2 -115.69 531.44 C-115.13 530.63 -114.57 529.83 -114 529 C-113.42 528.22 -112.85 527.43 -112.25 526.62 C-110.66 523.29 -110.79 520.65 -111 517 C-110.01 516.67 -109.02 516.34 -108 516 C-108.33 514.35 -108.66 512.7 -109 511 C-108.34 511 -107.68 511 -107 511 C-107 510.32 -107 509.65 -107 508.95 C-107.02 468.89 -107.04 428.84 -107.05 388.78 C-107.05 383.97 -107.05 379.16 -107.05 374.35 C-107.06 372.91 -107.06 372.91 -107.06 371.45 C-107.06 355.94 -107.07 340.44 -107.08 324.93 C-107.09 309.03 -107.09 293.12 -107.09 277.21 C-107.1 267.39 -107.1 257.57 -107.11 247.76 C-107.11 241.03 -107.11 234.29 -107.11 227.56 C-107.11 223.68 -107.11 219.79 -107.12 215.91 C-107.12 211.7 -107.12 207.48 -107.12 203.27 C-107.12 201.43 -107.12 201.43 -107.13 199.56 C-107.1 181.9 -107.1 181.9 -103.56 177.44 C-101 175 -101 175 -99 175 C-99.19 174.05 -99.37 173.1 -99.56 172.12 C-100 169 -100 169 -99 167 C-98.17 166.65 -97.35 166.3 -96.5 165.94 C-93.83 164.3 -93.83 164.3 -93.55 161.91 C-93.44 160.33 -93.36 158.74 -93.34 157.16 C-92.92 154.48 -92.03 153.71 -90 152 C-89.5 151.44 -89.01 150.89 -88.5 150.31 C-87 149 -87 149 -84 149 C-83.71 148.11 -83.42 147.23 -83.12 146.31 C-82.17 143.5 -81.13 140.75 -80 138 C-79.34 138 -78.68 138 -78 138 C-77.34 135.69 -76.68 133.38 -76 131 C-75.34 131 -74.68 131 -74 131 C-74 130.01 -74 129.02 -74 128 C-73.34 128 -72.68 128 -72 128 C-71.81 127.24 -71.61 126.48 -71.41 125.7 C-71.02 124.21 -71.02 124.21 -70.62 122.69 C-70.37 121.7 -70.11 120.72 -69.85 119.7 C-69 117 -69 117 -67 114 C-66.34 114 -65.68 114 -65 114 C-64.87 113 -64.87 113 -64.74 111.99 C-63.8 106.1 -62.84 102.87 -58 99 C-55.79 97.18 -55.79 97.18 -55.62 94.62 C-54.85 91.35 -53.45 90.23 -51 88 C-48.86 85.13 -48.86 85.13 -48.12 81.88 C-47.75 80.93 -47.38 79.98 -47 79 C-44.88 78.12 -44.88 78.12 -43 78 C-42.84 76.74 -42.67 75.48 -42.5 74.19 C-42.41 73.48 -42.31 72.77 -42.22 72.04 C-41.95 69.85 -41.95 69.85 -42 67 C-41.38 66.75 -40.77 66.5 -40.13 66.24 C-37.62 64.78 -37.08 63.75 -35.94 61.12 C-34.87 58.79 -33.94 56.93 -32.38 54.88 C-30.81 52.94 -30.81 52.94 -30 50 C-29.03 47.08 -28.07 45.25 -26 43 C-25.34 43 -24.68 43 -24 43 C-23.6 41.92 -23.6 41.92 -23.19 40.82 C-21.99 37.98 -20.6 35.45 -19 32.81 C-18.48 31.95 -17.97 31.09 -17.44 30.21 C-16 28 -16 28 -14 26 C-13.66 24.67 -13.33 23.33 -13 22 C-11.95 20.11 -11.95 20.11 -10.69 18.19 C-8.96 15.52 -7.34 12.85 -5.81 10.06 C-4 7 -4 7 -2 6 C-1.27 4.02 -0.6 2.02 0 0 Z " fill="#F9FBFB" transform="translate(923,327)"/>
<path d="M0 0 C0.99 -0 1.97 -0 2.99 -0.01 C6.23 -0.01 9.48 0.02 12.72 0.04 C14.98 0.05 17.25 0.05 19.51 0.05 C24.24 0.06 28.98 0.08 33.71 0.11 C39.78 0.15 45.84 0.17 51.91 0.18 C57.7 0.19 63.49 0.21 69.28 0.23 C70.94 0.24 70.94 0.24 72.63 0.24 C75.75 0.25 78.88 0.27 82 0.29 C82.93 0.3 83.85 0.3 84.8 0.3 C89.29 0.34 93.51 0.6 97.94 1.47 C99.4 1.52 100.85 1.56 102.31 1.59 C111.85 2.56 122.31 6.75 128.62 14.09 C136.68 25.78 138.09 37.93 138.06 51.68 C138.07 52.79 138.07 53.9 138.07 55.04 C138.07 58.75 138.07 62.46 138.07 66.17 C138.07 68.83 138.07 71.5 138.07 74.16 C138.08 80.64 138.08 87.12 138.07 93.6 C138.07 98.87 138.07 104.14 138.07 109.41 C138.07 110.16 138.07 110.92 138.07 111.69 C138.07 113.22 138.07 114.75 138.07 116.27 C138.08 130.59 138.07 144.91 138.07 159.22 C138.06 171.48 138.06 183.73 138.07 195.99 C138.07 210.24 138.08 224.5 138.07 238.75 C138.07 240.27 138.07 241.8 138.07 243.32 C138.07 244.07 138.07 244.82 138.07 245.6 C138.07 250.85 138.07 256.1 138.07 261.36 C138.08 267.78 138.08 274.2 138.07 280.62 C138.07 283.89 138.07 287.16 138.07 290.43 C138.11 337.51 138.11 337.51 126.94 349.16 C121.68 354.17 117.4 355.64 110.32 356.03 C107.79 356.37 107.79 356.37 105.29 357.96 C101.44 359.7 98.08 360.02 93.93 360.14 C93.15 360.18 92.37 360.21 91.56 360.24 C81.74 360.62 71.91 360.67 62.08 360.71 C61.08 360.71 60.08 360.72 59.05 360.72 C53.78 360.74 48.5 360.76 43.23 360.77 C37.81 360.78 32.38 360.81 26.96 360.85 C22.76 360.88 18.55 360.88 14.35 360.89 C12.35 360.89 10.35 360.9 8.35 360.92 C5.56 360.95 2.77 360.95 -0.02 360.94 C-1.24 360.96 -1.24 360.96 -2.49 360.98 C-8.13 360.93 -11.47 359.8 -16.06 356.47 C-17.86 353.61 -18.31 351.43 -18.32 348.09 C-18.33 347.21 -18.34 346.33 -18.35 345.43 C-18.35 344.47 -18.34 343.51 -18.34 342.52 C-18.35 341.5 -18.35 340.48 -18.36 339.42 C-18.38 335.98 -18.38 332.54 -18.38 329.1 C-18.39 326.63 -18.4 324.16 -18.41 321.69 C-18.44 315.66 -18.45 309.63 -18.46 303.6 C-18.48 296.5 -18.5 289.41 -18.53 282.31 C-18.57 269.55 -18.61 256.79 -18.64 244.03 C-18.67 231.83 -18.7 219.63 -18.75 207.42 C-18.75 206.68 -18.75 205.94 -18.75 205.18 C-18.76 202.19 -18.77 199.2 -18.78 196.22 C-18.87 168.91 -18.95 141.59 -19.01 114.28 C-19.03 100.53 -19.07 86.78 -19.12 73.03 C-19.15 65.5 -19.17 57.96 -19.19 50.43 C-19.2 46.35 -19.21 42.27 -19.24 38.18 C-19.25 34.55 -19.26 30.91 -19.27 27.28 C-19.27 25.4 -19.28 23.52 -19.3 21.64 C-19.29 9.85 -19.29 9.85 -17.06 4.47 C-11.67 0.02 -6.8 -0.09 0 0 Z " fill="#000100" transform="translate(474.062744140625,397.530029296875)"/>
<path d="M0 0 C36.69 -0.01 73.38 -0.01 110.07 -0.02 C111.15 -0.02 111.15 -0.02 112.25 -0.02 C189.31 -0.03 266.37 -0.04 343.44 -0.04 C345.15 -0.04 346.87 -0.04 348.58 -0.04 C384.59 -0.05 420.6 -0.05 456.6 -0.05 C474.69 -0.05 492.79 -0.05 510.88 -0.05 C513.61 -0.05 516.33 -0.06 519.06 -0.06 C561 -0.06 602.95 -0.06 644.89 -0.07 C645.79 -0.07 646.69 -0.07 647.61 -0.07 C662.11 -0.07 676.61 -0.07 691.11 -0.08 C732.95 -0.08 774.8 -0.09 816.64 -0.09 C817.5 -0.09 818.36 -0.09 819.25 -0.09 C838.22 -0.09 857.19 -0.09 876.15 -0.09 C883.79 -0.09 891.43 -0.09 899.06 -0.09 C899.9 -0.09 900.73 -0.09 901.59 -0.09 C928.37 -0.1 955.14 -0.1 981.91 -0.11 C1008.96 -0.11 1036 -0.12 1063.05 -0.11 C1066.81 -0.11 1070.58 -0.11 1074.34 -0.11 C1075.08 -0.11 1075.82 -0.11 1076.58 -0.11 C1087.41 -0.11 1098.24 -0.12 1109.07 -0.12 C1223.22 -0.16 1223.22 -0.16 1280 1 C1280 2.32 1280 3.64 1280 5 C857.6 5 435.2 5 0 5 C0 3.35 0 1.7 0 0 Z " fill="#3A3C3B" transform="translate(0,1275)"/>
<path d="M0 0 C0.99 -0 1.97 -0 2.99 -0.01 C6.23 -0.01 9.48 0.02 12.72 0.04 C14.98 0.05 17.25 0.05 19.51 0.05 C24.24 0.06 28.98 0.08 33.71 0.11 C39.78 0.15 45.84 0.17 51.91 0.18 C57.7 0.19 63.49 0.21 69.28 0.23 C70.94 0.24 70.94 0.24 72.63 0.24 C75.75 0.25 78.88 0.27 82 0.29 C82.93 0.3 83.85 0.3 84.8 0.3 C89.29 0.34 93.51 0.6 97.94 1.47 C99.4 1.52 100.85 1.56 102.31 1.59 C111.85 2.56 122.31 6.75 128.62 14.09 C136.68 25.78 138.09 37.93 138.06 51.68 C138.07 52.79 138.07 53.9 138.07 55.04 C138.07 58.75 138.07 62.46 138.07 66.17 C138.07 68.83 138.07 71.5 138.07 74.16 C138.08 80.64 138.08 87.12 138.07 93.6 C138.07 98.87 138.07 104.14 138.07 109.41 C138.07 110.16 138.07 110.92 138.07 111.69 C138.07 113.22 138.07 114.75 138.07 116.27 C138.08 130.59 138.07 144.91 138.07 159.22 C138.06 171.48 138.06 183.73 138.07 195.99 C138.07 210.24 138.08 224.5 138.07 238.75 C138.07 240.27 138.07 241.8 138.07 243.32 C138.07 244.07 138.07 244.82 138.07 245.6 C138.07 250.85 138.07 256.1 138.07 261.36 C138.08 267.78 138.08 274.2 138.07 280.62 C138.07 283.89 138.07 287.16 138.07 290.43 C138.11 337.51 138.11 337.51 126.94 349.16 C122.93 352.98 119.61 355.47 113.94 355.47 C113.94 354.81 113.94 354.15 113.94 353.47 C115.51 352.21 115.51 352.21 117.62 350.78 C120.62 348.64 122.75 346.65 124.81 343.59 C125.51 342.56 126.21 341.53 126.94 340.47 C127.6 340.47 128.26 340.47 128.94 340.47 C128.88 339.23 128.81 337.99 128.75 336.72 C128.61 333.93 128.66 332.84 130.37 330.58 C135.34 323.88 134.51 311.5 133.94 303.47 C133.63 301.8 133.3 300.13 132.94 298.47 C130.71 287.38 131.77 275.63 132.3 264.4 C133.17 245.45 133.12 226.5 133.14 207.53 C133.14 204.56 133.14 201.59 133.15 198.61 C133.16 189.25 133.17 179.89 133.18 170.52 C133.18 159.82 133.2 149.12 133.23 138.42 C133.25 130.07 133.26 121.71 133.26 113.36 C133.26 108.41 133.27 103.45 133.29 98.5 C134.95 60.47 134.95 60.47 125.09 24.62 C123.94 22.47 123.94 22.47 122.91 20.1 C121.2 16.76 119.7 14.22 116.13 12.7 C111.48 11.23 106.73 10.37 101.94 9.47 C100.95 8.97 100.95 8.97 99.94 8.47 C89.89 7.3 79.78 7.32 69.68 7.34 C68.16 7.34 66.64 7.34 65.12 7.33 C61.96 7.33 58.79 7.33 55.63 7.34 C51.61 7.35 47.6 7.34 43.58 7.34 C40.45 7.33 37.31 7.33 34.18 7.34 C32.7 7.34 31.22 7.34 29.74 7.33 C21.93 7.32 14.21 7.48 6.44 8.35 C2.66 8.53 -0.44 7.5 -4.06 6.47 C-6.23 6.85 -6.23 6.85 -8.06 7.47 C-10.02 15.3 -10.34 22.77 -10.31 30.82 C-10.31 32.13 -10.31 33.45 -10.32 34.8 C-10.32 38.43 -10.32 42.05 -10.31 45.68 C-10.3 49.6 -10.31 53.52 -10.31 57.44 C-10.32 65.11 -10.31 72.78 -10.3 80.45 C-10.29 89.39 -10.29 98.33 -10.29 107.27 C-10.29 123.22 -10.28 139.18 -10.27 155.14 C-10.25 170.61 -10.25 186.07 -10.25 201.54 C-10.25 202.49 -10.25 203.45 -10.25 204.43 C-10.25 205.38 -10.25 206.33 -10.25 207.31 C-10.25 224.94 -10.24 242.57 -10.23 260.2 C-10.23 266.43 -10.23 272.65 -10.23 278.87 C-10.23 286.47 -10.22 294.06 -10.22 301.65 C-10.21 305.52 -10.21 309.39 -10.21 313.26 C-10.21 317.46 -10.2 321.67 -10.2 325.87 C-10.2 327.08 -10.2 328.29 -10.2 329.54 C-10.19 335.07 -10.09 340.6 -9.8 346.13 C-9.76 347.09 -9.71 348.04 -9.67 349.03 C-9.26 351.6 -9.26 351.6 -7.21 353.28 C-4.19 354.96 -1.79 354.89 1.65 354.95 C2.7 354.97 2.7 354.97 3.76 354.99 C6.13 355.04 8.5 355.07 10.87 355.09 C12.57 355.12 14.27 355.16 15.97 355.19 C21.06 355.28 26.14 355.35 31.22 355.42 C35.34 355.48 39.46 355.54 43.59 355.6 C63.7 355.91 83.82 356.2 103.94 356.47 C104.27 357.13 104.6 357.79 104.94 358.47 C101.33 359.67 97.88 359.82 94.12 360.02 C93.32 360.06 92.53 360.1 91.71 360.14 C81.84 360.62 71.96 360.67 62.08 360.71 C61.08 360.71 60.08 360.72 59.05 360.72 C53.78 360.74 48.5 360.76 43.23 360.77 C37.81 360.78 32.38 360.81 26.96 360.85 C22.76 360.88 18.55 360.88 14.35 360.89 C12.35 360.89 10.35 360.9 8.35 360.92 C5.56 360.95 2.77 360.95 -0.02 360.94 C-1.24 360.96 -1.24 360.96 -2.49 360.98 C-8.13 360.93 -11.47 359.8 -16.06 356.47 C-17.86 353.61 -18.31 351.43 -18.32 348.09 C-18.33 347.21 -18.34 346.33 -18.35 345.43 C-18.35 344.47 -18.34 343.51 -18.34 342.52 C-18.35 341.5 -18.35 340.48 -18.36 339.42 C-18.38 335.98 -18.38 332.54 -18.38 329.1 C-18.39 326.63 -18.4 324.16 -18.41 321.69 C-18.44 315.66 -18.45 309.63 -18.46 303.6 C-18.48 296.5 -18.5 289.41 -18.53 282.31 C-18.57 269.55 -18.61 256.79 -18.64 244.03 C-18.67 231.83 -18.7 219.63 -18.75 207.42 C-18.75 206.68 -18.75 205.94 -18.75 205.18 C-18.76 202.19 -18.77 199.2 -18.78 196.22 C-18.87 168.91 -18.95 141.59 -19.01 114.28 C-19.03 100.53 -19.07 86.78 -19.12 73.03 C-19.15 65.5 -19.17 57.96 -19.19 50.43 C-19.2 46.35 -19.21 42.27 -19.24 38.18 C-19.25 34.55 -19.26 30.91 -19.27 27.28 C-19.27 25.4 -19.28 23.52 -19.3 21.64 C-19.29 9.85 -19.29 9.85 -17.06 4.47 C-11.67 0.02 -6.8 -0.09 0 0 Z " fill="#3A3C3B" transform="translate(474.062744140625,397.530029296875)"/>
<path d="M0 0 C5.88 3.62 5.88 3.62 7 7 C8.31 7.7 9.65 8.37 11 9 C13.36 11.06 15.44 13.39 17.56 15.69 C18.14 16.29 18.72 16.89 19.31 17.51 C23.01 21.48 25.03 24.96 27 30 C29.52 32.77 29.52 32.77 32 35 C33 37 33 37 33.31 39.81 C34.12 43.54 35.6 45.09 38 48 C39.82 52.61 41.12 57.03 40.81 62 C41.06 65.88 42.54 67.05 45 70 C46.17 72.63 47.07 75.27 48 78 C48.33 78 48.66 78 49 78 C49.02 106.54 49.04 135.07 49.05 163.61 C49.06 176.86 49.06 190.11 49.08 203.36 C49.09 214.9 49.09 226.44 49.09 237.99 C49.1 244.1 49.1 250.22 49.11 256.34 C49.11 262.09 49.11 267.84 49.11 273.58 C49.11 275.7 49.12 277.82 49.12 279.94 C49.12 282.81 49.12 285.69 49.12 288.57 C49.12 289.84 49.12 289.84 49.13 291.14 C49.11 296.89 49.11 296.89 48 298 C48.04 299.64 48.12 301.28 48.21 302.93 C48.26 309.25 46.49 313.64 43.62 319.19 C43.18 320.09 42.73 321 42.26 321.93 C38.69 329 34.63 335.71 30.32 342.35 C28.09 345.79 26.16 349.31 24.25 352.94 C21.14 358.84 17.62 364.28 13.78 369.73 C12.41 371.69 11.05 373.66 9.69 375.62 C9.02 376.56 9.02 376.56 8.34 377.51 C5.46 381.7 4.56 384.86 4 390 C2.81 391.48 1.61 392.96 0.32 394.35 C-1.2 396.24 -2.01 398.07 -2.94 400.31 C-4.29 403.56 -5.81 406.36 -7.81 409.25 C-11.06 413.93 -13.67 418.88 -16.33 423.91 C-18.39 427.72 -20.66 431.36 -23 435 C-23.52 435.87 -24.03 436.73 -24.56 437.62 C-25.61 439.36 -26.73 441.05 -27.88 442.72 C-30 446 -31.69 449.29 -33.38 452.81 C-35.82 457.85 -38.52 462.52 -41.73 467.11 C-43.17 469.16 -43.17 469.16 -44.62 472.25 C-46 475 -46 475 -47.94 477.31 C-49.7 479.6 -50.6 481.21 -51.69 483.81 C-55.88 493.71 -61.56 503.16 -67.67 511.99 C-69.56 514.85 -71.15 517.86 -72.78 520.88 C-73.94 522.9 -75.22 524.71 -76.62 526.56 C-78.47 529.04 -79.61 531.33 -80.62 534.25 C-81.94 537.85 -82.5 538.5 -85 541 C-86.07 543.06 -86.07 543.06 -86.94 545.31 C-88.59 549.21 -90.6 552.51 -93 556 C-94.01 557.99 -95.01 560 -96 562 C-97.12 564.09 -98.24 566.17 -99.38 568.25 C-102.69 574.39 -102.69 574.39 -105.94 580.56 C-106.54 581.71 -106.54 581.71 -107.15 582.88 C-108.25 585.24 -108.25 585.24 -108 589 C-109.32 590.35 -110.66 591.68 -112 593 C-113.67 595.57 -115.11 598.25 -116.56 600.94 C-118.04 603.63 -119.52 606.31 -121 609 C-121.55 609.99 -122.09 610.98 -122.65 612 C-123.1 612.66 -123.54 613.32 -124 614 C-124.66 614 -125.32 614 -126 614 C-126 613.34 -126 612.68 -126 612 C-127.32 612 -128.64 612 -130 612 C-131.58 613.74 -131.58 613.74 -132.75 616 C-133.18 616.74 -133.61 617.49 -134.05 618.25 C-134.52 619.12 -134.52 619.12 -135 620 C-135.91 617.55 -136.09 616.29 -135.3 613.77 C-134.87 612.86 -134.44 611.94 -134 611 C-133.72 610.39 -133.44 609.77 -133.15 609.14 C-132.15 606.98 -131.14 604.83 -130.12 602.69 C-129.79 601.97 -129.45 601.25 -129.1 600.5 C-127.08 596.23 -125.01 592 -122.83 587.8 C-121.53 584.98 -120.84 581.98 -120 579 C-119.01 577.33 -118.01 575.66 -117 574 C-116.66 572.33 -116.33 570.67 -116 569 C-114.33 565.13 -113.55 563.37 -110 561 C-109.16 558.96 -109.16 558.96 -108.62 556.56 C-107.28 551.64 -105.37 547.21 -103.19 542.61 C-102.14 540.3 -101.26 538.02 -100.44 535.62 C-99 532 -99 532 -96.81 529.44 C-94.37 526.16 -94.55 523.99 -95 520 C-96.82 517.75 -96.82 517.75 -99.46 517.77 C-100.5 517.77 -101.54 517.78 -102.61 517.79 C-104.38 517.79 -104.38 517.79 -106.19 517.8 C-107.48 517.81 -108.77 517.83 -110.1 517.84 C-111.45 517.85 -112.8 517.85 -114.15 517.86 C-117.73 517.87 -121.31 517.89 -124.88 517.92 C-131.21 517.97 -137.53 518 -143.85 518.03 C-144.87 518.03 -144.87 518.03 -145.92 518.04 C-158.96 518.09 -171.97 517.68 -185 517 C-184.67 516.01 -184.34 515.02 -184 514 C-183 513.98 -182 513.95 -180.97 513.93 C-171.54 513.71 -162.11 513.49 -152.68 513.27 C-147.83 513.15 -142.98 513.04 -138.14 512.93 C-133.45 512.82 -128.77 512.71 -124.09 512.6 C-122.31 512.56 -120.52 512.52 -118.74 512.48 C-116.24 512.42 -113.73 512.36 -111.23 512.3 C-110.5 512.28 -109.77 512.27 -109.01 512.25 C-105.68 512.16 -102.5 511.92 -99.2 511.42 C-95.07 510.88 -93.3 511.49 -90 514 C-87.5 520.54 -90.4 526.81 -93 533 C-93.51 533.85 -94.03 534.7 -94.55 535.57 C-96 538 -96.69 540.03 -97.38 542.75 C-98.66 547.33 -100.55 551.13 -103.01 555.19 C-104.16 556.95 -104.16 556.95 -104 559 C-102.35 559.33 -100.7 559.66 -99 560 C-98.29 558.3 -98.29 558.3 -97.56 556.56 C-95.42 551.72 -92.98 547.05 -90.5 542.38 C-89.93 541.3 -89.93 541.3 -89.35 540.21 C-86.98 535.76 -84.52 531.36 -82 527 C-73.53 512.34 -73.53 512.34 -65.5 497.44 C-60.86 488.52 -55.67 479.95 -50.44 471.36 C-48.29 467.84 -46.18 464.29 -44.06 460.75 C-41.81 456.99 -39.54 453.25 -37.19 449.56 C-35.21 446.44 -33.56 443.21 -31.99 439.86 C-31 438 -31 438 -29.58 436.17 C-27.99 433.99 -26.88 431.88 -25.74 429.45 C-22.92 423.68 -19.59 418.31 -16.19 412.88 C-11.76 405.7 -7.57 398.53 -3.91 390.93 C2.69 377.27 10.43 364.14 18 351 C19 349.25 20 347.51 20.99 345.76 C21.99 344.02 22.99 342.27 23.99 340.52 C25.37 338.11 26.74 335.7 28.11 333.29 C33.89 323.11 33.89 323.11 36.69 318.62 C37.07 318.01 37.45 317.4 37.84 316.77 C38.65 315.54 39.5 314.34 40.38 313.16 C44.45 307.48 45.15 301.93 45 295 C44.67 294.34 44.34 293.68 44 293 C43.9 290.84 43.87 288.67 43.88 286.5 C43.87 285.33 43.87 284.17 43.87 282.97 C44 280 44 280 45 278 C45.1 275.84 45.13 273.67 45.13 271.51 C45.13 270.83 45.13 270.16 45.13 269.47 C45.14 267.2 45.13 264.93 45.13 262.66 C45.13 261.04 45.13 259.41 45.13 257.79 C45.14 253.38 45.14 248.96 45.13 244.54 C45.13 239.93 45.13 235.32 45.14 230.71 C45.14 222.96 45.14 215.21 45.13 207.46 C45.12 198.5 45.13 189.53 45.13 180.56 C45.14 172.87 45.14 165.19 45.13 157.5 C45.13 152.9 45.13 148.3 45.14 143.71 C45.14 139.39 45.14 135.07 45.13 130.75 C45.13 129.16 45.13 127.57 45.13 125.98 C45.14 123.82 45.13 121.65 45.13 119.49 C45.13 118.28 45.13 117.07 45.13 115.82 C45.19 113.05 45.19 113.05 44 111 C43.65 109.07 43.35 107.13 43.06 105.19 C42.89 104.02 42.71 102.85 42.54 101.64 C42.27 99.84 42.27 99.84 42 98 C41.67 95.82 41.33 93.64 41 91.46 C40.5 88.2 40 84.93 39.5 81.66 C39.17 79.5 38.83 77.34 38.49 75.18 C38.17 73.07 37.86 70.95 37.57 68.83 C36.63 62.34 35.07 57.01 32.06 51.19 C31.36 49.79 30.67 48.38 29.97 46.98 C29.47 45.98 29.47 45.98 28.95 44.95 C28.07 43.13 27.28 41.27 26.5 39.4 C21.61 28.32 10.04 8.52 -1 3 C-0.67 2.01 -0.34 1.02 0 0 Z " fill="#949494" transform="translate(670,333)"/>
<path d="M0 0 C1.49 -0 1.49 -0 3.02 -0 C6.29 0 9.56 0.03 12.84 0.06 C15.11 0.07 17.39 0.08 19.67 0.08 C25.65 0.1 31.63 0.14 37.61 0.18 C43.71 0.22 49.82 0.24 55.93 0.26 C67.9 0.3 79.87 0.37 91.84 0.45 C92.34 1.94 92.34 1.94 92.84 3.45 C58.85 3.45 24.86 3.45 -10.16 3.45 C-12.85 13.28 -12.85 13.28 -13.85 23.08 C-13.88 23.81 -13.91 24.54 -13.95 25.29 C-14.12 29.11 -14.19 32.94 -14.16 36.77 C-14.16 39.78 -14.44 41.63 -15.16 44.45 C-15.25 47.22 -15.28 49.97 -15.26 52.73 C-15.26 53.58 -15.26 54.42 -15.26 55.3 C-15.26 58.14 -15.25 60.99 -15.23 63.84 C-15.23 65.9 -15.23 67.95 -15.22 70.01 C-15.21 75.64 -15.19 81.28 -15.17 86.91 C-15.16 90.45 -15.15 93.98 -15.14 97.52 C-15.09 113.65 -15.03 129.79 -14.96 145.93 C-14.94 153.11 -14.91 160.29 -14.88 167.47 C-14.83 180.27 -14.78 193.07 -14.73 205.86 C-14.68 218.26 -14.63 230.65 -14.59 243.04 C-14.58 243.81 -14.58 244.58 -14.58 245.38 C-14.56 249.24 -14.55 253.11 -14.53 256.98 C-14.41 288.8 -14.28 320.63 -14.16 352.45 C-10.22 354.62 -6.77 354.78 -2.35 354.83 C-1.14 354.86 -1.14 354.86 0.09 354.88 C2.82 354.94 5.55 354.98 8.28 355.02 C10.22 355.05 12.15 355.09 14.09 355.12 C19.7 355.23 25.3 355.31 30.9 355.4 C34.41 355.45 37.92 355.5 41.43 355.56 C62.23 355.88 83.04 356.17 103.84 356.45 C104.17 357.11 104.5 357.77 104.84 358.45 C101.23 359.66 97.79 359.81 94.02 360 C93.23 360.04 92.43 360.09 91.61 360.13 C81.74 360.61 71.87 360.66 61.99 360.69 C60.99 360.7 59.99 360.7 58.95 360.7 C53.68 360.73 48.41 360.74 43.13 360.75 C37.71 360.76 32.29 360.8 26.86 360.83 C22.66 360.86 18.46 360.87 14.26 360.87 C12.26 360.88 10.26 360.89 8.26 360.91 C5.47 360.93 2.68 360.93 -0.11 360.92 C-1.34 360.94 -1.34 360.94 -2.59 360.96 C-8.22 360.91 -11.57 359.79 -16.16 356.45 C-17.96 353.6 -18.41 351.42 -18.42 348.07 C-18.43 347.19 -18.43 346.32 -18.44 345.41 C-18.44 344.45 -18.44 343.49 -18.44 342.51 C-18.44 341.48 -18.45 340.46 -18.45 339.41 C-18.47 335.96 -18.47 332.52 -18.48 329.08 C-18.49 326.61 -18.5 324.15 -18.51 321.68 C-18.53 315.65 -18.55 309.62 -18.56 303.58 C-18.57 296.49 -18.6 289.39 -18.62 282.29 C-18.67 269.53 -18.71 256.77 -18.74 244.02 C-18.77 231.81 -18.8 219.61 -18.84 207.41 C-18.84 206.67 -18.85 205.93 -18.85 205.16 C-18.86 202.17 -18.87 199.19 -18.88 196.2 C-18.97 168.89 -19.04 141.58 -19.1 114.27 C-19.13 100.51 -19.16 86.76 -19.22 73.01 C-19.25 65.48 -19.27 57.95 -19.29 50.42 C-19.3 46.33 -19.31 42.25 -19.33 38.17 C-19.35 34.53 -19.36 30.9 -19.36 27.26 C-19.37 25.38 -19.38 23.51 -19.39 21.63 C-19.38 9.84 -19.38 9.84 -17.16 4.45 C-11.74 -0.02 -6.83 -0.11 0 0 Z " fill="#959595" transform="translate(474.157958984375,397.5458984375)"/>
<path d="M0 0 C10.12 -0.17 20.9 3.67 28.63 10.23 C38.58 21.81 40.16 35.59 40.13 50.21 C40.13 51.32 40.13 52.43 40.13 53.57 C40.14 57.28 40.13 60.99 40.13 64.7 C40.13 67.36 40.13 70.03 40.13 72.69 C40.14 79.17 40.14 85.65 40.14 92.13 C40.13 97.4 40.13 102.67 40.13 107.94 C40.13 108.69 40.13 109.45 40.13 110.22 C40.13 111.75 40.13 113.28 40.14 114.8 C40.14 129.12 40.13 143.44 40.13 157.75 C40.12 170.01 40.13 182.26 40.13 194.52 C40.14 208.77 40.14 223.03 40.13 237.28 C40.13 238.8 40.13 240.33 40.13 241.85 C40.13 242.98 40.13 242.98 40.13 244.13 C40.13 249.38 40.13 254.63 40.14 259.89 C40.14 266.31 40.14 272.73 40.13 279.15 C40.13 282.42 40.13 285.69 40.13 288.96 C40.17 336.04 40.17 336.04 29 347.69 C24.99 351.51 21.67 354 16 354 C16 353.34 16 352.68 16 352 C17.57 350.74 17.57 350.74 19.69 349.31 C22.68 347.17 24.81 345.18 26.88 342.12 C27.58 341.09 28.28 340.06 29 339 C29.66 339 30.32 339 31 339 C30.94 337.76 30.88 336.52 30.81 335.25 C30.67 332.46 30.72 331.37 32.44 329.11 C37.4 322.41 36.57 310.03 36 302 C35.7 300.33 35.36 298.66 35 297 C32.78 285.91 33.83 274.16 34.36 262.93 C35.23 243.98 35.18 225.03 35.2 206.07 C35.2 203.09 35.21 200.12 35.21 197.14 C35.23 187.78 35.23 178.42 35.24 169.05 C35.24 158.35 35.26 147.65 35.29 136.95 C35.31 128.6 35.32 120.24 35.32 111.89 C35.32 106.94 35.33 101.98 35.35 97.03 C35.42 76.99 35.29 57.36 32.36 37.49 C31.51 31.62 31 25.93 31 20 C29.61 17.22 27.84 17.02 25 16 C25 14.02 25 12.04 25 10 C24.45 9.83 23.91 9.66 23.35 9.48 C19.21 8.15 15.29 6.71 11.38 4.81 C7.33 2.94 4.42 2.62 0 3 C0 2.01 0 1.02 0 0 Z " fill="#959595" transform="translate(572,399)"/>
<path d="M0 0 C0.33 0 0.66 0 1 0 C4.4 21.65 4.42 43.08 4.34 64.93 C4.32 69.94 4.32 74.95 4.32 79.95 C4.32 88.35 4.3 96.75 4.28 105.15 C4.25 115.84 4.24 126.54 4.24 137.24 C4.23 146.54 4.22 155.85 4.21 165.15 C4.2 168.09 4.2 171.03 4.2 173.97 C4.18 192.9 4.13 211.8 3.23 230.72 C2.41 247.71 2.41 247.71 4.55 264.51 C6.13 273.22 5.5 283.53 3 292 C0.92 294.38 0.92 294.38 -1 296 C-2 295 -2 295 -2.12 292.45 C-2.11 291.28 -2.1 290.11 -2.09 288.91 C-2.09 288.25 -2.09 287.59 -2.08 286.91 C-2.02 278.93 -1.83 270.95 -1.65 262.98 C-1.01 234.29 -0.88 205.62 -0.93 176.92 C-0.94 170.7 -0.95 164.48 -0.95 158.26 C-0.96 142.61 -0.98 126.96 -1 111.31 C-1.01 105.94 -1.01 100.57 -1.02 95.2 C-1.02 94.54 -1.02 93.88 -1.02 93.19 C-1.04 82.14 -1.05 71.1 -1.05 60.05 C-1.06 52.68 -1.07 45.31 -1.08 37.94 C-1.09 33.4 -1.09 28.86 -1.09 24.31 C-1.1 22.2 -1.1 20.09 -1.11 17.98 C-1.11 15.12 -1.11 12.25 -1.11 9.39 C-1.12 8.54 -1.12 7.7 -1.12 6.83 C-1.11 1.11 -1.11 1.11 0 0 Z " fill="#3A3C3B" transform="translate(604,434)"/>
<path d="M0 0 C3.43 3.71 4.5 5.89 4.47 10.93 C4.47 12.69 4.47 12.69 4.48 14.48 C4.46 15.74 4.45 17 4.43 18.3 C4.44 20.29 4.45 22.28 4.46 24.27 C4.47 28.47 4.45 32.66 4.43 36.86 C4.41 40.31 4.4 43.76 4.42 47.21 C4.43 49.79 4.42 52.38 4.38 54.96 C4.42 61.73 5 66.44 8.83 72.13 C10.61 74.97 10.95 77.57 11.31 80.88 C12.13 84.61 13.76 86.93 16 90 C16.33 90.66 16.66 91.32 17 92 C12.94 90.7 11.17 89.43 8.94 85.81 C8.44 85 7.94 84.2 7.42 83.36 C6.95 82.58 6.48 81.8 6 81 C5.59 80.4 5.19 79.79 4.77 79.17 C-0.23 71.44 0.81 61.19 0.68 52.31 C0.65 50.53 0.65 50.53 0.62 48.72 C0.56 44.96 0.5 41.2 0.44 37.44 C0.39 34.88 0.35 32.32 0.31 29.76 C0.2 23.5 0.1 17.25 0 11 C-1.11 12.57 -2.22 14.14 -3.33 15.71 C-3.95 16.58 -4.57 17.45 -5.2 18.35 C-7.8 22.18 -10.01 26.18 -12.19 30.25 C-14.93 35.34 -17.78 40.2 -21 45 C-21.8 46.55 -22.58 48.11 -23.31 49.69 C-25.12 53.4 -27.12 56.85 -29.38 60.31 C-32.6 65.28 -35.42 70.39 -38.19 75.62 C-40.05 79.09 -41.98 82.52 -43.94 85.94 C-44.27 86.51 -44.6 87.09 -44.94 87.68 C-45.96 89.45 -46.98 91.23 -48 93 C-49.44 95.5 -50.88 98 -52.31 100.5 C-52.95 101.6 -53.58 102.71 -54.24 103.84 C-55.4 105.93 -56.52 108.04 -57.57 110.18 C-58.75 112.51 -59.94 114.49 -61.5 116.56 C-63.51 119.29 -65.28 122.08 -67 125 C-67.68 125.99 -68.36 126.98 -69.06 128 C-70.78 130.66 -71.85 133.08 -73 136 C-73.87 136.99 -73.87 136.99 -74.75 138 C-76.28 139.94 -76.28 139.94 -75.56 142.25 C-75.05 143.16 -74.53 144.07 -74 145 C-73.53 145.85 -73.53 145.85 -73.05 146.71 C-67.56 155.22 -58.16 160.45 -49.98 166.08 C-45.55 169.13 -41.68 172.09 -38 176 C-37.34 176.33 -36.68 176.66 -36 177 C-36 177.66 -36 178.32 -36 179 C-49.1 177.11 -60.21 166.9 -69.31 157.94 C-70.07 157.2 -70.07 157.2 -70.84 156.44 C-74.04 153.21 -76.53 149.84 -79 146 C-79.66 145.34 -80.32 144.68 -81 144 C-80.79 139.47 -79.28 136.41 -76.97 132.66 C-75.88 130.91 -75.88 130.91 -75.06 128.44 C-73.88 125.73 -72.2 123.91 -70.28 121.7 C-68.43 119.24 -67.4 116.58 -66.22 113.75 C-62.23 104.74 -57.42 96.28 -51.59 88.34 C-49.4 85.12 -47.79 81.69 -46.12 78.17 C-45 76 -45 76 -42.94 73.44 C-41.17 71.22 -40.32 69.59 -39.25 67.02 C-36.88 61.57 -34.02 56.46 -31.06 51.31 C-30.55 50.4 -30.04 49.49 -29.51 48.55 C-27.3 44.68 -25.14 40.99 -22.21 37.61 C-20.23 35.27 -19.32 33.88 -18.5 31 C-17.53 27.56 -15.74 25.52 -13.42 22.84 C-10.54 19.1 -8.46 14.85 -6.25 10.69 C-5.28 8.88 -4.3 7.07 -3.33 5.26 C-2.9 4.47 -2.48 3.67 -2.04 2.85 C-1 1 -1 1 0 0 Z " fill="#959595" transform="translate(664,772)"/>
<path d="M0 0 C5.88 3.62 5.88 3.62 7 7 C8.31 7.7 9.65 8.37 11 9 C13.36 11.06 15.44 13.39 17.56 15.69 C18.14 16.29 18.72 16.89 19.31 17.51 C23.01 21.48 25.03 24.96 27 30 C29.52 32.77 29.52 32.77 32 35 C33 37 33 37 33.31 39.81 C34.12 43.54 35.6 45.09 38 48 C39.82 52.61 41.12 57.03 40.81 62 C41.06 65.88 42.54 67.05 45 70 C46.17 72.63 47.07 75.27 48 78 C48.33 78 48.66 78 49 78 C49 150.27 49 222.54 49 297 C48.01 297.33 47.02 297.66 46 298 C44.09 293.97 43.76 290.75 43.81 286.31 C43.82 285.17 43.83 284.04 43.83 282.86 C44 280 44 280 45 278 C45.1 275.84 45.13 273.67 45.13 271.51 C45.13 270.83 45.13 270.16 45.13 269.47 C45.14 267.2 45.13 264.93 45.13 262.66 C45.13 261.04 45.13 259.41 45.13 257.79 C45.14 253.38 45.14 248.96 45.13 244.54 C45.13 239.93 45.13 235.32 45.14 230.71 C45.14 222.96 45.14 215.21 45.13 207.46 C45.12 198.5 45.13 189.53 45.13 180.56 C45.14 172.87 45.14 165.19 45.13 157.5 C45.13 152.9 45.13 148.3 45.14 143.71 C45.14 139.39 45.14 135.07 45.13 130.75 C45.13 129.16 45.13 127.57 45.13 125.98 C45.14 123.82 45.13 121.65 45.13 119.49 C45.13 118.28 45.13 117.07 45.13 115.82 C45.19 113.05 45.19 113.05 44 111 C43.65 109.07 43.35 107.13 43.06 105.19 C42.89 104.02 42.71 102.85 42.54 101.64 C42.36 100.44 42.18 99.24 42 98 C41.67 95.82 41.33 93.64 41 91.46 C40.5 88.2 40 84.93 39.5 81.66 C39.17 79.5 38.83 77.34 38.49 75.18 C38.17 73.07 37.86 70.95 37.57 68.83 C36.63 62.34 35.07 57.01 32.06 51.19 C31.36 49.79 30.67 48.38 29.97 46.98 C29.64 46.31 29.3 45.64 28.95 44.95 C28.07 43.13 27.28 41.27 26.5 39.4 C21.61 28.32 10.04 8.52 -1 3 C-0.67 2.01 -0.34 1.02 0 0 Z " fill="#3A3C3B" transform="translate(670,333)"/>
<path d="M0 0 C2 0.12 2 0.12 4 1 C6.03 3.94 6 5.28 6 9 C5.34 9.33 4.68 9.66 4 10 C4.12 10.97 4.25 11.94 4.38 12.94 C4.36 18.29 1.31 22.02 -2 26 C-7.18 31.13 -11.29 34.17 -18.65 34.56 C-21.13 34.87 -21.13 34.87 -23.37 36.53 C-26.71 38.39 -28.96 38.27 -32.75 38.12 C-34.83 38.05 -36.92 38.01 -39 38 C-39.33 38.33 -39.66 38.66 -40 39 C-41.77 39.1 -43.54 39.13 -45.31 39.13 C-47.01 39.13 -47.01 39.13 -48.75 39.14 C-50.61 39.14 -50.61 39.14 -52.51 39.13 C-53.79 39.13 -55.06 39.13 -56.38 39.14 C-59.09 39.14 -61.8 39.14 -64.51 39.13 C-67.95 39.12 -71.39 39.13 -74.82 39.13 C-78.14 39.14 -81.45 39.14 -84.76 39.13 C-85.98 39.13 -87.19 39.14 -88.44 39.14 C-119.99 39.05 -119.99 39.05 -130.24 28.75 C-133.08 24.73 -134.74 20.99 -135 16 C-134.01 15.67 -133.02 15.34 -132 15 C-131.81 15.7 -131.63 16.4 -131.44 17.12 C-128.93 22.13 -124.21 25.94 -119 28 C-115.95 28.33 -112.93 28.44 -109.88 28.56 C-107 29 -107 29 -105.36 30.51 C-101.83 32.73 -98.34 32.33 -94.3 32.21 C-92.99 32.19 -92.99 32.19 -91.65 32.17 C-89.76 32.14 -87.86 32.11 -85.97 32.06 C-82.98 32 -80 31.96 -77.01 31.93 C-71.8 31.87 -66.59 31.78 -61.38 31.68 C-59.24 31.64 -57.11 31.61 -54.97 31.58 C-43.88 31.42 -32.97 31.2 -22.01 29.43 C-17.66 28.81 -13.38 28.81 -9 29 C-8.91 27.86 -8.91 27.86 -8.81 26.69 C-8.06 23.27 -7.03 20.86 -5.5 17.75 C-3.26 13.07 -2.4 9.16 -2.24 4 C-2 2 -2 2 0 0 Z " fill="#3F403F" transform="translate(809,834)"/>
<path d="M0 0 C1.32 0.33 2.64 0.66 4 1 C3.34 1.66 2.68 2.32 2 3 C2.5 3.99 2.5 3.99 3 5 C2.31 8.5 2.31 8.5 1 12 C-0.32 12.7 -1.65 13.37 -3 14 C-3.72 15.98 -4.38 17.99 -5 20 C-7 23.38 -7 23.38 -9 26 C-9.66 26 -10.32 26 -11 26 C-10.96 26.74 -10.92 27.49 -10.88 28.25 C-11.01 31.19 -11.38 32.57 -13 35 C-16.43 38 -16.43 38 -19 38 C-18.96 38.91 -18.92 39.81 -18.88 40.75 C-19 43.95 -19.28 45.37 -21 48 C-21.47 48.42 -21.95 48.83 -22.44 49.26 C-24.49 51.54 -25.2 53.79 -26.19 56.69 C-26.53 57.68 -26.88 58.68 -27.23 59.7 C-27.48 60.46 -27.74 61.22 -28 62 C-28.66 62 -29.32 62 -30 62 C-30 62.99 -30 63.98 -30 65 C-30.66 65 -31.32 65 -32 65 C-32.14 65.78 -32.29 66.57 -32.44 67.38 C-33 70 -33 70 -34 72 C-34.66 72 -35.32 72 -36 72 C-36.1 72.7 -36.21 73.4 -36.31 74.12 C-37.09 77.39 -38.42 80.05 -40 83 C-40.99 83 -41.98 83 -43 83 C-43.33 83.99 -43.66 84.98 -44 86 C-46.06 86.69 -46.06 86.69 -48 87 C-48.04 87.76 -48.07 88.52 -48.11 89.3 C-48.18 90.29 -48.24 91.29 -48.31 92.31 C-48.37 93.3 -48.43 94.28 -48.49 95.3 C-49.05 98.27 -49.54 99.29 -52 101 C-52.99 101 -53.98 101 -55 101 C-54.9 102.22 -54.79 103.43 -54.69 104.69 C-54.66 108.39 -54.87 108.85 -57.44 111.88 C-58.28 112.58 -59.13 113.28 -60 114 C-63.32 120.64 -62.15 129.94 -62.16 137.15 C-62.16 138.47 -62.17 139.78 -62.17 141.14 C-62.19 144.78 -62.19 148.42 -62.2 152.07 C-62.21 156 -62.22 159.93 -62.24 163.87 C-62.26 170.68 -62.28 177.48 -62.29 184.29 C-62.31 194.14 -62.34 203.98 -62.37 213.83 C-62.42 229.8 -62.46 245.78 -62.5 261.75 C-62.54 277.26 -62.58 292.78 -62.63 308.29 C-62.63 309.25 -62.63 310.21 -62.64 311.19 C-62.65 315.99 -62.66 320.79 -62.68 325.59 C-62.79 365.39 -62.9 405.2 -63 445 C-63.66 445 -64.32 445 -65 445 C-64.67 340.39 -64.34 235.78 -64 128 C-64.66 128 -65.32 128 -66 128 C-68.19 126.44 -68.19 126.44 -70 124 C-69.8 118.31 -68.19 115.34 -64.62 111 C-60.85 106.3 -60.85 106.3 -58.25 100.94 C-57 98 -57 98 -54.38 96.5 C-53.59 96 -52.81 95.51 -52 95 C-51.86 93.97 -51.72 92.93 -51.57 91.87 C-50.94 87.61 -49.48 84.32 -47.5 80.56 C-47.15 79.88 -46.8 79.2 -46.44 78.49 C-32.11 50.86 -32.11 50.86 -24 46 C-23.67 45.67 -23.34 45.34 -23 45 C-23.04 44.09 -23.08 43.19 -23.12 42.25 C-22.98 38.49 -22.31 36.94 -20 34 C-19.11 33.5 -18.23 33.01 -17.31 32.5 C-16.55 32 -15.79 31.51 -15 31 C-14.96 29.33 -14.96 27.67 -15 26 C-14.38 25.59 -13.76 25.18 -13.12 24.75 C-10.56 22.64 -10.6 21.81 -10.06 18.62 C-9.23 14.01 -7.55 12.12 -4 9 C-1.98 6.05 -0.65 3.52 0 0 Z " fill="#3B3D3C" transform="translate(879,393)"/>
<path d="M0 0 C3.79 1.26 4.22 2.52 6 6 C7.03 9.25 7.13 12.25 7.14 15.65 C7.15 17.35 7.15 17.35 7.16 19.09 C7.17 20.31 7.17 21.54 7.18 22.8 C7.2 25.39 7.22 27.98 7.25 30.58 C7.28 34.66 7.31 38.75 7.33 42.84 C7.34 46.78 7.38 50.73 7.43 54.67 C7.42 55.89 7.42 57.1 7.42 58.35 C7.52 65.47 8.5 69.83 12 76 C11.5 77.49 11.5 77.49 11 79 C7.1 77.05 5.51 72.93 4 69 C3.32 64.37 3.35 59.81 3.4 55.14 C3.39 53.14 3.37 51.14 3.36 49.13 C3.35 46.36 3.36 43.58 3.37 40.8 C3.38 35.92 3.38 31.04 3.35 26.15 C3.34 23.56 3.35 20.96 3.36 18.37 C3.36 17.2 3.36 16.03 3.35 14.82 C3.36 13.27 3.36 13.27 3.37 11.7 C2.95 8.64 2.05 7.27 0 5 C-0.37 5.67 -0.75 6.34 -1.13 7.03 C-2.83 10.09 -4.54 13.14 -6.25 16.19 C-6.84 17.24 -7.42 18.3 -8.03 19.38 C-8.6 20.41 -9.17 21.43 -9.77 22.48 C-10.29 23.42 -10.81 24.36 -11.35 25.32 C-13.05 28.07 -14.96 30.5 -17 33 C-18.08 35.14 -18.08 35.14 -18.88 37.31 C-20.19 40.42 -21.57 42.93 -23.69 45.56 C-29.64 53.11 -34.5 62.13 -38.19 71 C-39.77 74.8 -41.95 77.69 -44.5 80.91 C-46.66 83.92 -48.14 87.18 -49.73 90.52 C-50.93 92.87 -52.25 94.96 -53.75 97.12 C-59.34 105.27 -64.52 114.09 -68.25 123.25 C-69.76 126.89 -71.62 128.84 -75 131 C-74.56 128.61 -73.95 126.92 -72.7 124.83 C-70.66 121.43 -68.93 117.93 -67.19 114.38 C-62.33 104.59 -57.11 95.11 -51.46 85.76 C-47.17 78.66 -43.08 71.46 -39 64.24 C-35.36 57.79 -31.66 51.41 -27.75 45.12 C-25.27 41.14 -22.99 37.18 -20.99 32.95 C-20 30.99 -18.89 29.19 -17.7 27.34 C-14.44 22.19 -11.6 16.83 -8.75 11.45 C-6.29 6.91 -3.86 3.44 0 0 Z " fill="#3B3D3C" transform="translate(664,768)"/>
<path d="M0 0 C5.88 3.62 5.88 3.62 7 7 C8.31 7.7 9.65 8.37 11 9 C13.36 11.06 15.44 13.39 17.56 15.69 C18.14 16.29 18.72 16.89 19.31 17.51 C23.01 21.48 25.03 24.96 27 30 C29.52 32.77 29.52 32.77 32 35 C33 37 33 37 33.31 39.81 C34.12 43.54 35.6 45.09 38 48 C39.82 52.61 41.12 57.03 40.81 62 C40.72 65.11 40.72 65.11 42.88 67.31 C48.96 75.01 47.23 86.74 47.12 96.06 C47.11 97.61 47.11 99.16 47.1 100.71 C47.08 104.47 47.04 108.24 47 112 C46.01 111.67 45.02 111.34 44 111 C43 104.49 42 97.98 41 91.46 C40.84 90.39 40.67 89.31 40.5 88.2 C40.17 86.02 39.83 83.84 39.5 81.66 C39.17 79.5 38.83 77.34 38.49 75.18 C38.17 73.07 37.86 70.95 37.57 68.83 C36.63 62.34 35.07 57.01 32.06 51.19 C31.36 49.79 30.67 48.38 29.97 46.98 C29.64 46.31 29.3 45.64 28.95 44.95 C28.07 43.13 27.28 41.27 26.5 39.4 C21.61 28.32 10.04 8.52 -1 3 C-0.67 2.01 -0.34 1.02 0 0 Z " fill="#939393" transform="translate(670,333)"/>
<path d="M0 0 C1.17 3.51 0.58 4.74 -0.93 8 C-2.51 10.95 -4.42 13.65 -6.32 16.4 C-8.92 20.42 -11.08 24.65 -13.29 28.89 C-15.03 32.06 -16.98 35 -19 38 C-19.5 39.01 -19.99 40.02 -20.5 41.06 C-22 44 -22 44 -23.85 46.19 C-26.87 50.14 -28.8 54.46 -30.91 58.94 C-32.92 63.09 -35.15 66.77 -37.9 70.47 C-39.19 72.27 -40.16 74.11 -41.06 76.12 C-42.25 78.63 -43.27 80.33 -45.06 82.5 C-47.11 85.14 -48.01 87.65 -49.1 90.77 C-51.62 97.02 -55.75 102.61 -59.38 108.25 C-62.85 113.66 -65.99 119.22 -69.11 124.84 C-71 128 -71 128 -73.14 130.63 C-75.01 133.01 -75.74 134.68 -76.5 137.56 C-77.68 141.46 -79.07 143.16 -82 146 C-83.1 148.21 -84.04 150.46 -84.98 152.74 C-86.34 155.77 -88.07 158.31 -90 161 C-90.66 160.67 -91.32 160.34 -92 160 C-91.37 155.35 -91.37 155.35 -89.58 153.65 C-87.04 151 -86.27 147.69 -85.06 144.28 C-84 142 -84 142 -81 140 C-80.2 138.08 -80.2 138.08 -79.69 135.88 C-78.37 131.56 -76.48 128.77 -73.67 125.29 C-70.91 121.5 -68.89 117.31 -66.72 113.16 C-64.85 109.72 -62.76 106.54 -60.54 103.31 C-56.61 97.42 -52.65 91.36 -50.38 84.62 C-48.85 80.59 -46.79 78.26 -44 75 C-43.05 73.14 -42.11 71.28 -41.23 69.39 C-39.67 66.36 -37.88 63.51 -36.06 60.62 C-33.09 55.87 -30.45 51.11 -28.11 46.02 C-27 44 -27 44 -25.51 42.51 C-23.66 40.66 -22.8 38.81 -21.69 36.44 C-19.54 31.99 -17.13 27.8 -14.55 23.59 C-12.36 19.92 -10.37 16.14 -8.39 12.35 C-7.1 10.17 -5.78 8.76 -4 7 C-3.32 5 -2.65 3 -2 1 C-1.34 0.67 -0.68 0.34 0 0 Z " fill="#2F3130" transform="translate(669,730)"/>
<path d="M0 0 C1.32 0.33 2.64 0.66 4 1 C3.34 1.66 2.68 2.32 2 3 C2.5 3.99 2.5 3.99 3 5 C2.31 8.5 2.31 8.5 1 12 C-0.32 12.7 -1.65 13.37 -3 14 C-3.72 15.98 -4.38 17.99 -5 20 C-7 23.38 -7 23.38 -9 26 C-9.66 26 -10.32 26 -11 26 C-10.96 26.74 -10.92 27.49 -10.88 28.25 C-11.01 31.19 -11.38 32.57 -13 35 C-16.43 38 -16.43 38 -19 38 C-18.96 38.91 -18.92 39.81 -18.88 40.75 C-19 43.95 -19.28 45.37 -21 48 C-21.47 48.42 -21.95 48.83 -22.44 49.26 C-24.49 51.54 -25.2 53.79 -26.19 56.69 C-26.53 57.68 -26.88 58.68 -27.23 59.7 C-27.48 60.46 -27.74 61.22 -28 62 C-28.66 62 -29.32 62 -30 62 C-30 62.99 -30 63.98 -30 65 C-30.66 65 -31.32 65 -32 65 C-32.22 66.18 -32.22 66.18 -32.44 67.38 C-33 70 -33 70 -34 72 C-34.66 72 -35.32 72 -36 72 C-36.15 73.05 -36.15 73.05 -36.31 74.12 C-37.09 77.39 -38.42 80.05 -40 83 C-40.99 83 -41.98 83 -43 83 C-43.33 83.99 -43.66 84.98 -44 86 C-47.06 87.19 -47.06 87.19 -50 88 C-48.51 82.97 -46.36 78.59 -43.88 74 C-43.48 73.26 -43.08 72.52 -42.67 71.76 C-41.84 70.24 -41.02 68.72 -40.19 67.21 C-39.08 65.15 -37.99 63.07 -36.91 60.99 C-33.55 54.65 -30.61 50.11 -24.49 46.22 C-22.64 44.99 -22.64 44.99 -22.69 41.94 C-22.79 40.97 -22.89 40 -23 39 C-21.52 35.65 -20.53 34.3 -17.31 32.5 C-16.55 32 -15.79 31.51 -15 31 C-14.96 29.33 -14.96 27.67 -15 26 C-14.38 25.59 -13.76 25.18 -13.12 24.75 C-10.56 22.64 -10.6 21.81 -10.06 18.62 C-9.23 14.01 -7.55 12.12 -4 9 C-1.98 6.05 -0.65 3.52 0 0 Z " fill="#444545" transform="translate(879,393)"/>
<path d="M0 0 C3.98 0.5 7.97 0.39 11.98 0.38 C12.95 0.38 13.91 0.38 14.91 0.38 C18.08 0.38 21.26 0.37 24.44 0.36 C26.65 0.36 28.85 0.36 31.06 0.36 C36.87 0.35 42.67 0.35 48.47 0.33 C54.39 0.32 60.32 0.32 66.25 0.31 C77.86 0.3 89.48 0.29 101.1 0.27 C101.1 0.6 101.1 0.93 101.1 1.27 C111.99 1.76 111.99 1.76 123.1 2.27 C123.43 2.93 123.76 3.59 124.1 4.27 C106.64 4.29 89.19 4.31 71.73 4.32 C63.63 4.32 55.53 4.33 47.42 4.34 C40.36 4.35 33.3 4.36 26.24 4.36 C22.5 4.36 18.76 4.36 15.02 4.37 C10.85 4.38 6.68 4.38 2.51 4.38 C0.64 4.38 0.64 4.38 -1.28 4.39 C-2.4 4.39 -3.53 4.39 -4.7 4.39 C-5.68 4.39 -6.67 4.39 -7.69 4.39 C-9.9 4.27 -9.9 4.27 -10.9 3.27 C-12.57 3.22 -14.24 3.22 -15.9 3.27 C-15.9 2.28 -15.9 1.29 -15.9 0.27 C-14.96 0.28 -14.96 0.28 -14.01 0.3 C-12.78 0.31 -12.78 0.31 -11.53 0.33 C-10.31 0.35 -10.31 0.35 -9.07 0.36 C-0.22 -0.04 -0.22 -0.04 0 0 Z " fill="#404241" transform="translate(384.9041156768799,847.7345867156982)"/>
<path d="M0 0 C0.33 0 0.66 0 1 0 C1.31 2.69 1.31 2.69 1 6 C-1.19 8.5 -1.19 8.5 -4 11 C-4.78 11.99 -5.57 12.98 -6.38 14 C-11.72 20.11 -15.84 22.43 -24 23 C-29.05 23.08 -34.09 23 -39.14 22.91 C-40.62 22.89 -42.11 22.87 -43.59 22.85 C-46.71 22.8 -49.82 22.76 -52.93 22.7 C-56.85 22.64 -60.78 22.58 -64.7 22.52 C-81.15 22.29 -97.58 21.96 -114 21 C-113.67 20.34 -113.34 19.68 -113 19 C-111.29 19 -111.29 19 -109.54 19.01 C-98.76 19.03 -87.98 19.02 -77.19 18.97 C-71.65 18.95 -66.11 18.94 -60.56 18.96 C-55.21 18.97 -49.85 18.96 -44.5 18.92 C-42.46 18.91 -40.42 18.91 -38.39 18.93 C-26.59 19.01 -18.48 18.78 -9 11 C-8.01 10.67 -7.02 10.34 -6 10 C-4.99 8.23 -4.99 8.23 -4 6 C-2.71 3.97 -1.38 1.96 0 0 Z " fill="#3C3E3D" transform="translate(602,732)"/>
<path d="M0 0 C0.95 -0 1.9 -0.01 2.88 -0.01 C3.78 -0.01 4.68 -0.01 5.62 -0.01 C6.44 -0.01 7.25 -0.01 8.1 -0 C10.12 0.12 10.12 0.12 12.12 1.12 C13.53 1.22 14.94 1.25 16.35 1.25 C17.24 1.25 18.12 1.25 19.04 1.25 C20.5 1.24 20.5 1.24 21.99 1.24 C23.02 1.24 24.04 1.24 25.1 1.24 C28.49 1.24 31.89 1.23 35.29 1.22 C37.64 1.22 39.99 1.22 42.34 1.22 C48.54 1.21 54.74 1.2 60.94 1.19 C67.26 1.18 73.58 1.18 79.9 1.17 C92.31 1.16 104.72 1.15 117.12 1.12 C116.79 2.12 116.47 3.11 116.12 4.12 C102.54 4.15 88.95 4.17 75.36 4.18 C69.06 4.18 62.75 4.19 56.44 4.2 C50.35 4.21 44.26 4.22 38.17 4.22 C35.85 4.22 33.53 4.23 31.2 4.23 C27.95 4.24 24.7 4.24 21.44 4.24 C20 4.24 20 4.24 18.53 4.25 C13.93 4.24 9.67 3.94 5.12 3.12 C4.79 3.46 4.47 3.78 4.12 4.12 C1.96 4.06 -0.21 3.92 -2.38 3.75 C-3.64 3.65 -4.9 3.55 -6.2 3.45 C-10.43 3.08 -14.65 2.63 -18.88 2.12 C-18.88 1.79 -18.88 1.47 -18.88 1.12 C-12.55 0.19 -6.39 -0.03 0 0 Z " fill="#1D1F1E" transform="translate(675.875,961.875)"/>
<path d="M0 0 C3 1 4.03 1.65 6 4 C6 4.66 6 5.32 6 6 C5.43 6.54 4.87 7.08 4.29 7.63 C1.29 10.73 -0.52 14.16 -2.56 17.94 C-4.04 20.63 -5.52 23.31 -7 26 C-7.55 26.99 -8.09 27.98 -8.65 29 C-9.1 29.66 -9.54 30.32 -10 31 C-10.66 31 -11.32 31 -12 31 C-12 30.34 -12 29.68 -12 29 C-13.32 29 -14.64 29 -16 29 C-17.58 30.74 -17.58 30.74 -18.75 33 C-19.18 33.74 -19.61 34.49 -20.05 35.25 C-20.36 35.83 -20.68 36.4 -21 37 C-21.95 34.43 -22.07 33.23 -21.23 30.58 C-19.97 27.94 -18.7 25.3 -17.38 22.69 C-16.93 21.8 -16.48 20.92 -16.02 20.01 C-15.52 19.02 -15.52 19.02 -15 18 C-14.67 19.32 -14.34 20.64 -14 22 C-13.17 20.3 -13.17 20.3 -12.32 18.57 C-11.59 17.09 -10.86 15.61 -10.12 14.12 C-9.76 13.38 -9.4 12.63 -9.02 11.86 C-8.67 11.15 -8.31 10.43 -7.95 9.7 C-7.62 9.04 -7.3 8.38 -6.96 7.7 C-6 6 -6 6 -4 4 C-3.34 4 -2.68 4 -2 4 C-1.34 2.68 -0.68 1.36 0 0 Z " fill="#3C3E3D" transform="translate(556,916)"/>
<path d="M0 0 C0 3.24 -0.47 4.19 -2.05 6.91 C-2.48 7.68 -2.91 8.44 -3.36 9.22 C-4.05 10.41 -4.05 10.41 -4.75 11.62 C-7.83 16.97 -10.67 22.26 -13.02 27.98 C-14.1 30.2 -15.41 32 -16.94 33.94 C-19.82 37.57 -21.74 41.35 -23.73 45.52 C-24.93 47.87 -26.25 49.96 -27.75 52.12 C-33.34 60.27 -38.52 69.09 -42.25 78.25 C-43.76 81.89 -45.62 83.84 -49 86 C-48.56 83.61 -47.95 81.92 -46.7 79.83 C-44.66 76.43 -42.93 72.93 -41.19 69.38 C-36.33 59.59 -31.11 50.11 -25.46 40.76 C-21.15 33.62 -17.04 26.38 -12.94 19.13 C-11.88 17.25 -10.81 15.37 -9.75 13.5 C-9.13 12.4 -8.5 11.29 -7.86 10.16 C-2.66 1.33 -2.66 1.33 0 0 Z " fill="#434544" transform="translate(638,813)"/>
<path d="M0 0 C1.17 3.51 0.58 4.74 -0.93 8 C-2.51 10.95 -4.42 13.65 -6.32 16.4 C-8.92 20.42 -11.08 24.65 -13.29 28.89 C-15.03 32.06 -16.98 35 -19 38 C-19.5 39.01 -19.99 40.02 -20.5 41.06 C-22 44 -22 44 -23.86 46.18 C-26.88 50.16 -28.74 54.55 -30.74 59.12 C-33.24 64.46 -35.98 66.9 -41 70 C-39.23 66.31 -37.18 62.79 -35.12 59.25 C-32.86 55.32 -30.65 51.41 -28.69 47.31 C-27 44 -27 44 -25.54 42.58 C-23.69 40.68 -22.81 38.83 -21.69 36.44 C-19.54 31.99 -17.13 27.8 -14.55 23.59 C-12.36 19.92 -10.37 16.14 -8.39 12.35 C-7.1 10.17 -5.78 8.76 -4 7 C-3.32 5 -2.65 3 -2 1 C-1.34 0.67 -0.68 0.34 0 0 Z " fill="#292B2A" transform="translate(669,730)"/>
<path d="M0 0 C0.66 0 1.32 0 2 0 C2 1.65 2 3.3 2 5 C2.63 4.97 3.26 4.94 3.91 4.9 C6.79 4.78 9.68 4.7 12.56 4.62 C13.55 4.57 14.54 4.52 15.56 4.47 C20.7 4.37 24.06 4.46 28.07 7.89 C29.06 8.91 30.04 9.95 31 11 C31.78 11.68 32.57 12.36 33.38 13.06 C35.3 15.36 35.67 17.06 36 20 C35.01 20.33 34.02 20.66 33 21 C32.72 19.61 32.72 19.61 32.44 18.19 C30.84 14.64 29.81 14.04 26.28 12.66 C21.51 11.28 16.56 10.89 11.62 10.38 C9.45 10.14 7.28 9.89 5.1 9.65 C3.67 9.5 3.67 9.5 2.21 9.34 C0 9 0 9 -1 8 C-1.24 2.47 -1.24 2.47 0 0 Z " fill="#3B3C3B" transform="translate(888,415)"/>
<path d="M0 0 C-0.5 5.45 -1.98 9.6 -4.56 14.44 C-5.29 15.83 -6.01 17.23 -6.73 18.62 C-7.1 19.34 -7.48 20.05 -7.86 20.79 C-9.02 23.03 -10.13 25.29 -11.24 27.56 C-11.78 28.66 -11.78 28.66 -12.32 29.78 C-13.01 31.2 -13.7 32.62 -14.39 34.03 C-16.78 38.89 -16.78 38.89 -19 40 C-19.46 35.29 -18.5 32.7 -16.01 28.71 C-14.57 26.27 -13.86 23.69 -13 21 C-11.42 17.24 -9.78 13.51 -7.9 9.89 C-6.87 7.95 -6.87 7.95 -6.56 5.44 C-5.62 1.35 -4.19 0 0 0 Z " fill="#F7F9F9" transform="translate(560,899)"/>
<path d="M0 0 C1 3 1 3 0.21 4.91 C-0.42 5.98 -0.42 5.98 -1.06 7.06 C-1.53 7.87 -2 8.67 -2.49 9.5 C-3.24 10.74 -3.24 10.74 -4 12 C-4.67 13.11 -4.67 13.11 -5.36 14.25 C-6.32 15.85 -7.28 17.44 -8.25 19.04 C-10.89 23.5 -13.41 28.03 -15.93 32.55 C-17.54 35.44 -19.17 38.25 -21 41 C-23 38 -23 38 -22.89 35.21 C-21.82 31.37 -20.16 28.9 -17.81 25.69 C-16.99 24.54 -16.17 23.39 -15.35 22.25 C-14.95 21.69 -14.54 21.14 -14.13 20.57 C-10.01 14.85 -6.33 9 -3.08 2.75 C-2 1 -2 1 0 0 Z " fill="#333534" transform="translate(697,682)"/>
<path d="M0 0 C1.32 0.33 2.64 0.66 4 1 C3.34 1.66 2.68 2.32 2 3 C2.33 3.66 2.66 4.32 3 5 C2.31 8.5 2.31 8.5 1 12 C-0.32 12.7 -1.65 13.37 -3 14 C-3.72 15.98 -4.38 17.99 -5 20 C-7 23.38 -7 23.38 -9 26 C-9.66 26 -10.32 26 -11 26 C-10.94 26.78 -10.88 27.57 -10.81 28.38 C-10.87 29.24 -10.94 30.11 -11 31 C-11.99 31.66 -12.98 32.32 -14 33 C-14.33 30.69 -14.66 28.38 -15 26 C-14.07 25.54 -14.07 25.54 -13.12 25.06 C-10.7 22.71 -10.62 21.85 -10.06 18.62 C-9.23 14.01 -7.55 12.12 -4 9 C-1.98 6.05 -0.65 3.52 0 0 Z " fill="#4A4C4B" transform="translate(879,393)"/>
<path d="M0 0 C2.87 0.57 3.86 0.86 6 3 C6.79 7.81 5.99 10.4 3.25 14.25 C2.7 15 2.15 15.76 1.59 16.54 C-0.64 19.99 -1.83 23.61 -3.12 27.49 C-4.16 30.47 -5.59 33.18 -7 36 C-7.7 38.74 -7.7 38.74 -8 41 C-8.66 40.67 -9.32 40.34 -10 40 C-9.61 34.57 -8.64 30.84 -6.04 26.08 C-4.93 23.86 -4.21 21.68 -3.5 19.31 C-2.56 16.27 -1.92 14.9 0.19 12.38 C2.62 9.18 2.31 6.91 2 3 C1.01 2.67 0.02 2.34 -1 2 C-0.67 1.34 -0.34 0.68 0 0 Z " fill="#444645" transform="translate(570,850)"/>
<path d="M0 0 C0.66 0 1.32 0 2 0 C1.67 4.17 1.25 6.63 -1.12 10.12 C-3.23 12.79 -3.23 12.79 -3 15.56 C-1.75 18.61 -0.19 20.52 2 23 C2.51 23.6 3.02 24.2 3.54 24.81 C7.79 29.79 12.33 34.42 17 39 C17.66 39.66 18.32 40.32 19 41 C14.95 41 13.98 39.71 11 37 C9.5 35.29 8.06 33.54 6.61 31.79 C4.99 29.99 3.3 28.48 1.44 26.94 C-1.87 24.16 -4.59 21.61 -7 18 C-6.69 13.3 -5.1 9.76 -2.94 5.62 C-2.39 4.57 -1.84 3.51 -1.28 2.41 C-0.86 1.62 -0.43 0.82 0 0 Z " fill="#393B3A" transform="translate(587,899)"/>
<path d="M0 0 C0 4.04 -1.52 7.31 -3 11 C-3.25 11.65 -3.5 12.3 -3.76 12.97 C-5.64 17.65 -5.64 17.65 -7.47 19.43 C-9.27 21.27 -9.98 22.93 -10.94 25.31 C-12.6 29.24 -14.52 32.54 -17 36 C-17.66 35.67 -18.32 35.34 -19 35 C-18.37 30.35 -18.37 30.35 -16.58 28.65 C-14.04 26 -13.27 22.69 -12.06 19.28 C-11 17 -11 17 -8 15 C-7.17 13.02 -7.17 13.02 -6.62 10.75 C-5.23 6.15 -3.29 3.47 0 0 Z " fill="#252625" transform="translate(596,855)"/>
<path d="M0 0 C10.58 3.79 18.15 14.24 23 24.1 C24.13 26.25 25.5 28.09 27 30 C24 30 24 30 21.56 28 C19.46 25.54 18.5 24.11 17.25 21.28 C15 16.65 11.93 13.24 8.38 9.56 C7.79 8.94 7.2 8.32 6.6 7.67 C3.63 4.41 3.63 4.41 0 2 C0 1.34 0 0.68 0 0 Z " fill="#383A39" transform="translate(677,338)"/>
<path d="M0 0 C21.97 -1.17 21.97 -1.17 28.77 4.69 C29.18 5.12 29.58 5.55 30 6 C28.19 6.62 28.19 6.62 26 7 C25.01 6.34 24.02 5.68 23 5 C20.39 4.45 20.39 4.45 17.46 4.15 C16.38 4.02 15.31 3.89 14.21 3.76 C12.53 3.57 12.53 3.57 10.81 3.38 C9.12 3.17 9.12 3.17 7.38 2.97 C4.59 2.64 1.8 2.32 -1 2 C-0.67 1.34 -0.34 0.68 0 0 Z " fill="#959595" transform="translate(889,422)"/>
<path d="M0 0 C1.16 3.49 0.58 4.72 -0.91 7.97 C-2.58 11.08 -4.58 13.95 -6.59 16.85 C-8.17 19.14 -8.17 19.14 -9.62 22.44 C-11.12 25.23 -12.05 25.98 -15 27 C-13.03 19.69 -9.39 12.34 -4 7 C-3.32 5 -2.65 3 -2 1 C-1.34 0.67 -0.68 0.34 0 0 Z " fill="#323433" transform="translate(669,730)"/>
<path d="M0 0 C0.99 0.66 1.98 1.32 3 2 C2.43 4.87 2.14 5.86 0 8 C-0.31 8.62 -0.62 9.24 -0.94 9.88 C-2.07 12.14 -3.46 13.99 -5 16 C-5.33 16.66 -5.66 17.32 -6 18 C-6.99 18 -7.98 18 -9 18 C-8.72 11.38 -6.12 8.02 -2 3 C-1.34 2.01 -0.68 1.02 0 0 Z " fill="#3D3F3E" transform="translate(933,310)"/>
<path d="M0 0 C0 6.96 -5.73 13.81 -10 19 C-10.35 19.89 -10.7 20.77 -11.06 21.69 C-12 24 -12 24 -15 26 C-14.15 19.7 -12.42 15.68 -8.38 10.78 C-6.83 8.96 -6.83 8.96 -5.94 6.25 C-4.66 3.19 -2.66 1.89 0 0 Z " fill="#2B2D2C" transform="translate(632,796)"/>
<path d="M0 0 C0.33 0.66 0.66 1.32 1 2 C-0.01 4.32 -1.07 6.52 -2.25 8.75 C-2.56 9.36 -2.88 9.97 -3.2 10.59 C-3.83 11.81 -4.46 13.02 -5.09 14.23 C-5.95 15.91 -6.76 17.6 -7.57 19.3 C-9.23 22.43 -11.13 23.98 -14 26 C-13.56 23.63 -12.97 21.94 -11.71 19.87 C-9.15 15.57 -7.04 11.05 -4.87 6.53 C-2.22 1.11 -2.22 1.11 0 0 Z " fill="#494B4A" transform="translate(603,873)"/>
<path d="M0 0 C0.97 0 1.93 0.01 2.93 0.01 C5.28 0.03 7.64 0.04 10 0.06 C10.33 1.05 10.66 2.04 11 3.06 C10.03 3.04 9.06 3.02 8.06 3 C5.13 2.71 5.13 2.71 4 4.06 C1.83 4 -0.34 3.86 -2.5 3.69 C-3.76 3.59 -5.02 3.49 -6.32 3.39 C-10.56 3.01 -14.78 2.57 -19 2.06 C-19 1.73 -19 1.4 -19 1.06 C-12.63 0.11 -6.44 -0.06 0 0 Z " fill="#4D4E4D" transform="translate(676,961.9375)"/>
<path d="M0 0 C0 4.67 -2.51 8.05 -4.75 12.06 C-5.19 12.89 -5.64 13.72 -6.09 14.57 C-6.75 15.76 -6.75 15.76 -7.42 16.97 C-7.82 17.7 -8.22 18.42 -8.63 19.17 C-10.2 21.27 -11.59 22.02 -14 23 C-12.31 18.34 -9.98 14.12 -7.56 9.81 C-7.17 9.09 -6.77 8.36 -6.37 7.62 C-5.98 6.93 -5.59 6.23 -5.19 5.52 C-4.84 4.89 -4.49 4.26 -4.14 3.62 C-3 2 -3 2 0 0 Z " fill="#4E4F4F" transform="translate(638,813)"/>
<path d="M0 0 C0.66 0.33 1.32 0.66 2 1 C1.67 7.22 -1.36 12.11 -5 17 C-6.95 18.73 -8.67 19.78 -11 21 C-8.87 16.54 -6.32 12.31 -3.83 8.04 C-2.3 5.38 -0.98 2.93 0 0 Z " fill="#202120" transform="translate(639,779)"/>
<path d="M0 0 C0.33 0.99 0.66 1.98 1 3 C0.67 3.66 0.34 4.32 0 5 C0.99 5.33 1.98 5.66 3 6 C1.9 7.61 0.79 9.21 -0.31 10.81 C-0.93 11.71 -1.54 12.6 -2.18 13.52 C-3.68 15.56 -5.15 17.28 -7 19 C-7.45 13.71 -6.11 10.69 -3.5 6.12 C-3 5.24 -3 5.24 -2.49 4.33 C-1.67 2.88 -0.84 1.44 0 0 Z " fill="#959595" transform="translate(541,934)"/>
<path d="M0 0 C6.37 2.37 11.54 6.04 17 10 C16.67 10.66 16.34 11.32 16 12 C10.47 10.62 6.12 7.88 2 4 C0.77 1.8 0.77 1.8 0 0 Z " fill="#959595" transform="translate(351,838)"/>
<path d="M0 0 C0.33 0.99 0.66 1.98 1 3 C-2.75 6 -2.75 6 -5 6 C-5 7.98 -5 9.96 -5 12 C-6.32 12.33 -7.64 12.66 -9 13 C-9.32 8.36 -8.88 5.71 -6 2 C-3.8 0.6 -2.6 0 0 0 Z " fill="#3D3F3E" transform="translate(865,425)"/>
<path d="M0 0 C0.66 0 1.32 0 2 0 C1.37 3.5 -0.05 5.84 -2.06 8.75 C-2.61 9.55 -3.16 10.35 -3.72 11.17 C-4.14 11.78 -4.57 12.38 -5 13 C-5.66 12.34 -6.32 11.68 -7 11 C-6.25 7.62 -6.25 7.62 -5 4 C-2.94 2.69 -2.94 2.69 -1 2 C-0.67 1.34 -0.34 0.68 0 0 Z " fill="#A2A2A2" transform="translate(836,476)"/>
<path d="M0 0 C6.3 0.37 11.33 1.17 17 4 C17 4.66 17 5.32 17 6 C15.52 5.69 14.04 5.38 12.56 5.06 C11.74 4.89 10.92 4.71 10.07 4.54 C8 4 8 4 7 3 C4.67 2.96 2.33 2.96 0 3 C0 2.01 0 1.02 0 0 Z " fill="#929292" transform="translate(572,399)"/>
<path d="M0 0 C0.66 0.33 1.32 0.66 2 1 C1.49 7.54 -0.47 10.47 -5 15 C-5.75 13.31 -5.75 13.31 -6 11 C-4.71 9.3 -3.37 7.64 -2 6 C-0.74 2.82 -0.74 2.82 0 0 Z " fill="#272928" transform="translate(583,876)"/>
<path d="M0 0 C0 4.95 0 9.9 0 15 C-0.99 14.67 -1.98 14.34 -3 14 C-3 9.71 -3 5.42 -3 1 C-1 0 -1 0 0 0 Z " fill="#959595" transform="translate(717,612)"/>
<path d="M0 0 C1.33 0.67 2.67 1.33 4 2 C4.66 1.67 5.32 1.34 6 1 C6.33 1.99 6.66 2.98 7 4 C6.01 4.33 5.02 4.66 4 5 C2.33 6.5 2.33 6.5 1 8 C-2 4.38 -2 4.38 -2 1 C-1.34 0.67 -0.68 0.34 0 0 Z " fill="#444645" transform="translate(915,330)"/>
<path d="M0 0 C2.14 7.43 2.14 7.43 3 11 C2.01 11.5 2.01 11.5 1 12 C-1.7 9.13 -2.95 7.69 -3.25 3.69 C-3.17 2.8 -3.09 1.91 -3 1 C-1 0 -1 0 0 0 Z " fill="#383A39" transform="translate(713,391)"/>
<path d="M0 0 C0.83 0.29 1.66 0.59 2.52 0.89 C6.64 2.25 10.45 3.11 14.77 3.57 C14.77 3.9 14.77 4.23 14.77 4.57 C7.52 4.99 1.6 4.02 -5.23 1.57 C-2.23 -0.43 -2.23 -0.43 0 0 Z " fill="#232423" transform="translate(650.234375,958.42578125)"/>
<path d="M0 0 C0.66 0 1.32 0 2 0 C1.74 4.46 1.42 6.52 -1.56 9.94 C-2.37 10.62 -3.17 11.3 -4 12 C-4.33 11.34 -4.66 10.68 -5 10 C-4 7.62 -4 7.62 -2.56 4.88 C-1.85 3.51 -1.85 3.51 -1.13 2.12 C-0.76 1.42 -0.38 0.72 0 0 Z " fill="#454645" transform="translate(587,899)"/>
<path d="M0 0 C0.99 0.33 1.98 0.66 3 1 C1.12 6.75 1.12 6.75 0 9 C-0.99 9 -1.98 9 -3 9 C-2.25 2.25 -2.25 2.25 0 0 Z " fill="#8D8D8D" transform="translate(927,319)"/>
<path d="M0 0 C2 2 2 2 2 4 C2.66 4 3.32 4 4 4 C2.12 8.75 2.12 8.75 1 11 C0.01 10.67 -0.98 10.34 -2 10 C-1.46 6.62 -0.89 3.3 0 0 Z " fill="#383A39" transform="translate(533,948)"/>
<path d="M0 0 C0.33 0.66 0.66 1.32 1 2 C0.11 4.13 0.11 4.13 -1.25 6.56 C-1.69 7.37 -2.13 8.17 -2.58 9 C-4 11 -4 11 -7 12 C-5.78 7.96 -4.4 4.49 -2 1 C-1.34 0.67 -0.68 0.34 0 0 Z " fill="#4D4F4E" transform="translate(603,873)"/>
<path d="M0 0 C4 3 8 6 12 9 C10.38 9.81 10.38 9.81 8 10 C3.79 7.14 1.43 5.02 0 0 Z " fill="#383A39" transform="translate(351,840)"/>
<path d="M0 0 C2.49 3.24 4.75 6.59 7 10 C7.99 11.49 7.99 11.49 9 13 C6 13 6 13 3.44 10.94 C0.59 7.5 -0.07 5.3 -1 1 C-0.67 0.67 -0.34 0.34 0 0 Z " fill="#343635" transform="translate(695,355)"/>
<path d="M0 0 C0.33 0.66 0.66 1.32 1 2 C0.02 4.01 -0.98 6.01 -2 8 C-2.7 10.74 -2.7 10.74 -3 13 C-3.66 12.67 -4.32 12.34 -5 12 C-4.51 4.62 -4.51 4.62 -1.94 1.5 C-1.3 1 -0.66 0.51 0 0 Z " fill="#464747" transform="translate(565,878)"/>
<path d="M0 0 C4.6 1.32 8.18 3.09 12 6 C12 6.66 12 7.32 12 8 C8.59 7.39 6.48 6.1 3.75 4 C3.04 3.46 2.34 2.93 1.61 2.38 C1.08 1.92 0.55 1.47 0 1 C0 0.67 0 0.34 0 0 Z " fill="#959595" transform="translate(657,326)"/>
<path d="M0 0 C2.97 0 5.94 0 9 0 C9 0.99 9 1.98 9 3 C5.7 3 2.4 3 -1 3 C-0.67 2.01 -0.34 1.02 0 0 Z " fill="#919191" transform="translate(793,962)"/>
<path d="M0 0 C0 3.3 0 6.6 0 10 C-0.99 10 -1.98 10 -3 10 C-3 7.03 -3 4.06 -3 1 C-1 0 -1 0 0 0 Z " fill="#919191" transform="translate(923,840)"/>
<path d="M0 0 C1 3 1 3 0.22 5.04 C-0.16 5.75 -0.54 6.46 -0.94 7.19 C-1.32 7.9 -1.7 8.62 -2.09 9.36 C-2.54 10.17 -2.54 10.17 -3 11 C-3.66 10.67 -4.32 10.34 -5 10 C-4.3 6.85 -3.35 3.93 -2 1 C-1.34 0.67 -0.68 0.34 0 0 Z " fill="#2F3130" transform="translate(718,643)"/>
<path d="M0 0 C1.05 3.15 1.18 4.01 0 7 C-1.63 8.48 -1.63 8.48 -3.56 9.75 C-4.2 10.18 -4.84 10.61 -5.5 11.05 C-6.24 11.52 -6.24 11.52 -7 12 C-6.73 11.48 -6.46 10.97 -6.19 10.44 C-5.21 8.43 -4.34 6.38 -3.5 4.31 C-2 1 -2 1 0 0 Z " fill="#262827" transform="translate(669,730)"/>
<path d="M0 0 C0.46 1.99 0.91 3.97 1.37 5.96 C1.98 8.28 1.98 8.28 4 11 C3.01 11.5 3.01 11.5 2 12 C1.16 10.93 0.32 9.84 -0.5 8.75 C-0.96 8.15 -1.43 7.54 -1.91 6.92 C-3 5 -3 5 -3 1 C-1 0 -1 0 0 0 Z " fill="#353736" transform="translate(705,369)"/>
<path d="M0 0 C-1.42 2.03 -2.55 2.9 -4.98 3.42 C-6.98 3.66 -8.99 3.84 -11 4 C-11 3.34 -11 2.68 -11 2 C-7.37 -0.33 -4.23 -0.16 0 0 Z " fill="#A0A0A0" transform="translate(795,868)"/>
<path d="M0 0 C-1.5 3.11 -3.2 6.05 -5 9 C-5.66 8.67 -6.32 8.34 -7 8 C-6.66 4.85 -6.42 3.39 -4.06 1.19 C-2 0 -2 0 0 0 Z " fill="#A8A8A8" transform="translate(866,428)"/>
<path d="M0 0 C0 3.52 -0.82 4.37 -3 7 C-3.99 6.67 -4.98 6.34 -6 6 C-6 4.68 -6 3.36 -6 2 C-4.02 1.34 -2.04 0.68 0 0 Z " fill="#484A49" transform="translate(913,343)"/>
</svg>
