<?xml version="1.0" standalone="no"?>
<!DOCTYPE svg PUBLIC "-//W3C//DTD SVG 20010904//EN"
 "http://www.w3.org/TR/2001/REC-SVG-20010904/DTD/svg10.dtd">
<svg version="1.0" xmlns="http://www.w3.org/2000/svg"
 width="150.000000pt" height="150.000000pt" viewBox="0 0 150.000000 150.000000"
 preserveAspectRatio="xMidYMid meet">
<metadata>
Created by potrace 1.10, written by Peter Selinger 2001-2011
</metadata>
<g transform="translate(0.000000,150.000000) scale(0.100000,-0.100000)"
fill="#000000" stroke="none">
<path d="M398 1153 c-23 -24 -23 -26 -26 -328 l-3 -303 24 -28 c25 -29 38 -32
157 -33 l66 -1 -4 -42 c-3 -24 -2 -41 0 -38 14 15 66 120 60 121 -4 0 -63 1
-132 2 l-125 2 0 315 0 315 165 0 c158 0 166 -1 199 -24 52 -37 61 -71 61
-231 0 -130 -2 -143 -23 -178 -78 -123 -177 -307 -177 -327 0 -4 6 -5 14 -2 8
3 33 -4 57 -16 32 -16 67 -23 127 -26 111 -4 164 5 198 34 16 14 33 25 37 25
5 0 5 4 2 10 -3 5 -1 10 5 10 6 0 18 16 26 35 21 50 20 540 -1 569 -8 10 -12
22 -10 26 6 10 14 90 9 90 -4 0 -64 -119 -64 -126 0 -2 9 -4 20 -4 19 0 20 -7
20 -261 0 -295 -3 -310 -69 -347 -54 -31 -222 -32 -281 -2 -21 11 -41 23 -43
27 -5 8 81 165 98 181 4 4 5 -10 2 -31 -3 -21 -2 -49 3 -63 9 -22 15 -24 80
-24 67 0 71 1 81 26 5 15 9 110 9 214 -1 183 -1 189 23 227 28 45 97 179 97
190 0 4 -13 -6 -30 -22 -16 -15 -27 -31 -25 -36 3 -4 1 -9 -3 -11 -5 -1 -25
-27 -45 -56 -57 -83 -67 -132 -67 -318 0 -145 -2 -164 -18 -173 -11 -6 -27 -5
-47 4 -17 7 -27 14 -23 14 4 1 3 15 -2 33 -8 26 -4 43 26 106 l35 74 -4 142
c-2 77 -6 151 -10 163 -12 43 -104 123 -126 109 -5 -4 -12 -2 -16 4 -3 5 -67
9 -155 9 -145 -1 -149 -2 -172 -26z"/>
<path d="M540 820 l0 -210 66 0 c109 0 104 -9 104 208 0 133 -4 192 -12 200
-7 7 -42 12 -85 12 l-73 0 0 -210z m118 158 c8 -8 12 -59 12 -166 l0 -153 -42
3 -43 3 -3 150 c-1 82 0 155 2 162 7 16 58 17 74 1z"/>
<path d="M373 13 c207 -2 547 -2 755 0 207 1 37 2 -378 2 -415 0 -585 -1 -377
-2z"/>
</g>
</svg>
