<?xml version="1.0" standalone="no"?>
<!DOCTYPE svg PUBLIC "-//W3C//DTD SVG 20010904//EN"
 "http://www.w3.org/TR/2001/REC-SVG-20010904/DTD/svg10.dtd">
<svg version="1.0" xmlns="http://www.w3.org/2000/svg"
 width="275.000000pt" height="183.000000pt" viewBox="0 0 275.000000 183.000000"
 preserveAspectRatio="xMidYMid meet">
<metadata>
Created by potrace 1.10, written by Peter Selinger 2001-2011
</metadata>
<g transform="translate(0.000000,183.000000) scale(0.100000,-0.100000)"
fill="#000000" stroke="none">
<path d="M946 1394 l-26 -27 0 -369 0 -370 29 -29 c29 -29 30 -29 151 -29
l122 0 -6 -26 c-27 -107 -14 -112 32 -11 17 39 32 74 32 77 0 3 -71 5 -157 5
l-158 0 0 380 0 380 165 3 c91 2 184 0 208 -3 55 -8 117 -62 132 -113 5 -21
10 -109 10 -198 l0 -160 -76 -130 c-42 -71 -101 -176 -132 -233 -55 -103 -55
-104 -25 -86 29 17 30 17 73 -11 43 -29 45 -29 196 -29 l152 0 44 30 c28 20
52 49 71 84 l27 55 0 306 c0 265 -2 309 -16 329 -14 20 -15 30 -4 82 7 33 10
62 7 66 -5 5 -77 -137 -77 -151 0 -1 10 -2 23 -2 l22 1 3 -316 c2 -313 2 -316
-21 -359 -38 -72 -84 -90 -230 -90 -101 0 -128 3 -163 21 -71 34 -72 39 -21
126 25 43 52 92 61 108 l15 30 1 -57 c0 -81 19 -98 105 -98 107 0 105 -6 105
276 l0 235 81 145 c45 80 79 147 76 150 -8 8 -74 -74 -119 -150 -82 -137 -78
-121 -78 -365 0 -247 -1 -251 -69 -251 -48 0 -57 11 -65 81 -7 53 -5 60 31
120 l38 64 3 145 c2 80 1 168 -3 197 -9 73 -53 135 -117 167 -50 25 -58 26
-239 26 l-186 0 -27 -26z"/>
<path d="M1117 1243 c-4 -3 -7 -116 -7 -250 l0 -243 95 0 c132 0 127 -10 123
260 -4 252 2 240 -123 240 -45 0 -85 -3 -88 -7z m151 -46 c12 -14 18 -379 7
-397 -3 -5 -31 -10 -61 -10 l-54 0 0 204 c0 154 3 206 13 209 25 11 85 7 95
-6z"/>
<path d="M10 18 c0 -5 618 -7 1373 -6 754 2 1149 4 877 5 -1310 7 -2250 7
-2250 1z"/>
</g>
</svg>
